<?xml version="1.0" encoding="utf-8"?>
<svg xmlns="http://www.w3.org/2000/svg" xmlns:xlink="http://www.w3.org/1999/xlink" width="161.25" height="115.25" viewBox="0 0 645 461">
<defs>
  <clipPath id="clip090">
    <rect x="0" y="0" width="645" height="461"/>
  </clipPath>
</defs>
<path clip-path="url(#clip090)" d="
M0 461 L645 461 L645 0 L0 0  Z
  " fill="#ffffff" fill-rule="evenodd" fill-opacity="1"/>
<defs>
  <clipPath id="clip091">
    <rect x="129" y="0" width="453" height="453"/>
  </clipPath>
</defs>
<path clip-path="url(#clip090)" d="
M42.7668 432.375 L633.664 432.375 L633.664 30.6834 L42.7668 30.6834  Z
  " fill="#ffffff" fill-rule="evenodd" fill-opacity="1"/>
<defs>
  <clipPath id="clip092">
    <rect x="42" y="30" width="592" height="403"/>
  </clipPath>
</defs>
<polyline clip-path="url(#clip092)" style="stroke:#000000; stroke-width:0.480208; stroke-opacity:0.1; fill:none" points="
  57.8112,432.375 57.8112,30.6834 
  "/>
<polyline clip-path="url(#clip092)" style="stroke:#000000; stroke-width:0.480208; stroke-opacity:0.1; fill:none" points="
  225.718,432.375 225.718,30.6834 
  "/>
<polyline clip-path="url(#clip092)" style="stroke:#000000; stroke-width:0.480208; stroke-opacity:0.1; fill:none" points="
  393.624,432.375 393.624,30.6834 
  "/>
<polyline clip-path="url(#clip092)" style="stroke:#000000; stroke-width:0.480208; stroke-opacity:0.1; fill:none" points="
  561.531,432.375 561.531,30.6834 
  "/>
<polyline clip-path="url(#clip090)" style="stroke:#000000; stroke-width:0.960417; stroke-opacity:1; fill:none" points="
  42.7668,432.375 633.664,432.375 
  "/>
<polyline clip-path="url(#clip090)" style="stroke:#000000; stroke-width:0.960417; stroke-opacity:1; fill:none" points="
  57.8112,432.375 57.8112,427.554 
  "/>
<polyline clip-path="url(#clip090)" style="stroke:#000000; stroke-width:0.960417; stroke-opacity:1; fill:none" points="
  225.718,432.375 225.718,427.554 
  "/>
<polyline clip-path="url(#clip090)" style="stroke:#000000; stroke-width:0.960417; stroke-opacity:1; fill:none" points="
  393.624,432.375 393.624,427.554 
  "/>
<polyline clip-path="url(#clip090)" style="stroke:#000000; stroke-width:0.960417; stroke-opacity:1; fill:none" points="
  561.531,432.375 561.531,427.554 
  "/>
<path clip-path="url(#clip090)" d="M 0 0 M57.8112 439.937 Q56.9447 439.937 56.5059 440.793 Q56.0727 441.643 56.0727 443.355 Q56.0727 445.061 56.5059 445.917 Q56.9447 446.767 57.8112 446.767 Q58.6833 446.767 59.1165 445.917 Q59.5553 445.061 59.5553 443.355 Q59.5553 441.643 59.1165 440.793 Q58.6833 439.937 57.8112 439.937 M57.8112 439.047 Q59.2054 439.047 59.9386 440.153 Q60.6773 441.254 60.6773 443.355 Q60.6773 445.45 59.9386 446.556 Q59.2054 447.657 57.8112 447.657 Q56.417 447.657 55.6783 446.556 Q54.9451 445.45 54.9451 443.355 Q54.9451 441.254 55.6783 440.153 Q56.417 439.047 57.8112 439.047 Z" fill="#000000" fill-rule="evenodd" fill-opacity="1" /><path clip-path="url(#clip090)" d="M 0 0 M216.928 446.551 L218.761 446.551 L218.761 440.22 L216.767 440.62 L216.767 439.598 L218.75 439.197 L219.872 439.197 L219.872 446.551 L221.705 446.551 L221.705 447.495 L216.928 447.495 L216.928 446.551 Z" fill="#000000" fill-rule="evenodd" fill-opacity="1" /><path clip-path="url(#clip090)" d="M 0 0 M225.321 439.937 Q224.454 439.937 224.015 440.793 Q223.582 441.643 223.582 443.355 Q223.582 445.061 224.015 445.917 Q224.454 446.767 225.321 446.767 Q226.193 446.767 226.626 445.917 Q227.065 445.061 227.065 443.355 Q227.065 441.643 226.626 440.793 Q226.193 439.937 225.321 439.937 M225.321 439.047 Q226.715 439.047 227.448 440.153 Q228.187 441.254 228.187 443.355 Q228.187 445.45 227.448 446.556 Q226.715 447.657 225.321 447.657 Q223.926 447.657 223.188 446.556 Q222.455 445.45 222.455 443.355 Q222.455 441.254 223.188 440.153 Q223.926 439.047 225.321 439.047 Z" fill="#000000" fill-rule="evenodd" fill-opacity="1" /><path clip-path="url(#clip090)" d="M 0 0 M231.803 439.937 Q230.936 439.937 230.497 440.793 Q230.064 441.643 230.064 443.355 Q230.064 445.061 230.497 445.917 Q230.936 446.767 231.803 446.767 Q232.675 446.767 233.108 445.917 Q233.547 445.061 233.547 443.355 Q233.547 441.643 233.108 440.793 Q232.675 439.937 231.803 439.937 M231.803 439.047 Q233.197 439.047 233.93 440.153 Q234.669 441.254 234.669 443.355 Q234.669 445.45 233.93 446.556 Q233.197 447.657 231.803 447.657 Q230.409 447.657 229.67 446.556 Q228.937 445.45 228.937 443.355 Q228.937 441.254 229.67 440.153 Q230.409 439.047 231.803 439.047 Z" fill="#000000" fill-rule="evenodd" fill-opacity="1" /><path clip-path="url(#clip090)" d="M 0 0 M385.859 446.551 L389.775 446.551 L389.775 447.495 L384.509 447.495 L384.509 446.551 Q385.148 445.889 386.248 444.778 Q387.353 443.66 387.637 443.338 Q388.175 442.732 388.386 442.315 Q388.603 441.893 388.603 441.487 Q388.603 440.826 388.136 440.409 Q387.675 439.992 386.931 439.992 Q386.403 439.992 385.815 440.176 Q385.231 440.359 384.565 440.731 L384.565 439.598 Q385.243 439.325 385.831 439.186 Q386.42 439.047 386.909 439.047 Q388.198 439.047 388.964 439.692 Q389.731 440.337 389.731 441.415 Q389.731 441.926 389.536 442.388 Q389.347 442.843 388.842 443.466 Q388.703 443.627 387.959 444.4 Q387.214 445.167 385.859 446.551 Z" fill="#000000" fill-rule="evenodd" fill-opacity="1" /><path clip-path="url(#clip090)" d="M 0 0 M393.391 439.937 Q392.525 439.937 392.086 440.793 Q391.652 441.643 391.652 443.355 Q391.652 445.061 392.086 445.917 Q392.525 446.767 393.391 446.767 Q394.263 446.767 394.696 445.917 Q395.135 445.061 395.135 443.355 Q395.135 441.643 394.696 440.793 Q394.263 439.937 393.391 439.937 M393.391 439.047 Q394.785 439.047 395.518 440.153 Q396.257 441.254 396.257 443.355 Q396.257 445.45 395.518 446.556 Q394.785 447.657 393.391 447.657 Q391.997 447.657 391.258 446.556 Q390.525 445.45 390.525 443.355 Q390.525 441.254 391.258 440.153 Q391.997 439.047 393.391 439.047 Z" fill="#000000" fill-rule="evenodd" fill-opacity="1" /><path clip-path="url(#clip090)" d="M 0 0 M399.873 439.937 Q399.007 439.937 398.568 440.793 Q398.135 441.643 398.135 443.355 Q398.135 445.061 398.568 445.917 Q399.007 446.767 399.873 446.767 Q400.745 446.767 401.178 445.917 Q401.617 445.061 401.617 443.355 Q401.617 441.643 401.178 440.793 Q400.745 439.937 399.873 439.937 M399.873 439.047 Q401.267 439.047 402 440.153 Q402.739 441.254 402.739 443.355 Q402.739 445.45 402 446.556 Q401.267 447.657 399.873 447.657 Q398.479 447.657 397.74 446.556 Q397.007 445.45 397.007 443.355 Q397.007 441.254 397.74 440.153 Q398.479 439.047 399.873 439.047 Z" fill="#000000" fill-rule="evenodd" fill-opacity="1" /><path clip-path="url(#clip090)" d="M 0 0 M556.068 443.021 Q556.873 443.194 557.323 443.738 Q557.779 444.283 557.779 445.083 Q557.779 446.312 556.935 446.984 Q556.09 447.657 554.535 447.657 Q554.013 447.657 553.457 447.551 Q552.908 447.451 552.319 447.245 L552.319 446.162 Q552.785 446.434 553.341 446.573 Q553.896 446.712 554.502 446.712 Q555.557 446.712 556.107 446.295 Q556.662 445.878 556.662 445.083 Q556.662 444.35 556.146 443.938 Q555.635 443.521 554.718 443.521 L553.752 443.521 L553.752 442.599 L554.763 442.599 Q555.59 442.599 556.029 442.271 Q556.468 441.937 556.468 441.315 Q556.468 440.676 556.012 440.337 Q555.563 439.992 554.718 439.992 Q554.257 439.992 553.73 440.092 Q553.202 440.192 552.569 440.403 L552.569 439.403 Q553.207 439.225 553.763 439.136 Q554.324 439.047 554.818 439.047 Q556.096 439.047 556.84 439.631 Q557.584 440.209 557.584 441.198 Q557.584 441.887 557.19 442.365 Q556.796 442.838 556.068 443.021 Z" fill="#000000" fill-rule="evenodd" fill-opacity="1" /><path clip-path="url(#clip090)" d="M 0 0 M561.395 439.937 Q560.528 439.937 560.089 440.793 Q559.656 441.643 559.656 443.355 Q559.656 445.061 560.089 445.917 Q560.528 446.767 561.395 446.767 Q562.267 446.767 562.7 445.917 Q563.139 445.061 563.139 443.355 Q563.139 441.643 562.7 440.793 Q562.267 439.937 561.395 439.937 M561.395 439.047 Q562.789 439.047 563.522 440.153 Q564.261 441.254 564.261 443.355 Q564.261 445.45 563.522 446.556 Q562.789 447.657 561.395 447.657 Q560.001 447.657 559.262 446.556 Q558.529 445.45 558.529 443.355 Q558.529 441.254 559.262 440.153 Q560.001 439.047 561.395 439.047 Z" fill="#000000" fill-rule="evenodd" fill-opacity="1" /><path clip-path="url(#clip090)" d="M 0 0 M567.877 439.937 Q567.01 439.937 566.572 440.793 Q566.138 441.643 566.138 443.355 Q566.138 445.061 566.572 445.917 Q567.01 446.767 567.877 446.767 Q568.749 446.767 569.182 445.917 Q569.621 445.061 569.621 443.355 Q569.621 441.643 569.182 440.793 Q568.749 439.937 567.877 439.937 M567.877 439.047 Q569.271 439.047 570.004 440.153 Q570.743 441.254 570.743 443.355 Q570.743 445.45 570.004 446.556 Q569.271 447.657 567.877 447.657 Q566.483 447.657 565.744 446.556 Q565.011 445.45 565.011 443.355 Q565.011 441.254 565.744 440.153 Q566.483 439.047 567.877 439.047 Z" fill="#000000" fill-rule="evenodd" fill-opacity="1" /><polyline clip-path="url(#clip092)" style="stroke:#000000; stroke-width:0.480208; stroke-opacity:0.1; fill:none" points="
  42.7668,421.006 633.664,421.006 
  "/>
<polyline clip-path="url(#clip092)" style="stroke:#000000; stroke-width:0.480208; stroke-opacity:0.1; fill:none" points="
  42.7668,311.488 633.664,311.488 
  "/>
<polyline clip-path="url(#clip092)" style="stroke:#000000; stroke-width:0.480208; stroke-opacity:0.1; fill:none" points="
  42.7668,201.969 633.664,201.969 
  "/>
<polyline clip-path="url(#clip092)" style="stroke:#000000; stroke-width:0.480208; stroke-opacity:0.1; fill:none" points="
  42.7668,92.4509 633.664,92.4509 
  "/>
<polyline clip-path="url(#clip090)" style="stroke:#000000; stroke-width:0.960417; stroke-opacity:1; fill:none" points="
  42.7668,432.375 42.7668,30.6834 
  "/>
<polyline clip-path="url(#clip090)" style="stroke:#000000; stroke-width:0.960417; stroke-opacity:1; fill:none" points="
  42.7668,421.006 49.8576,421.006 
  "/>
<polyline clip-path="url(#clip090)" style="stroke:#000000; stroke-width:0.960417; stroke-opacity:1; fill:none" points="
  42.7668,311.488 49.8576,311.488 
  "/>
<polyline clip-path="url(#clip090)" style="stroke:#000000; stroke-width:0.960417; stroke-opacity:1; fill:none" points="
  42.7668,201.969 49.8576,201.969 
  "/>
<polyline clip-path="url(#clip090)" style="stroke:#000000; stroke-width:0.960417; stroke-opacity:1; fill:none" points="
  42.7668,92.4509 49.8576,92.4509 
  "/>
<path clip-path="url(#clip090)" d="M 0 0 M14.8731 417.596 Q14.0066 417.596 13.5678 418.452 Q13.1345 419.302 13.1345 421.014 Q13.1345 422.721 13.5678 423.577 Q14.0066 424.427 14.8731 424.427 Q15.7451 424.427 16.1784 423.577 Q16.6172 422.721 16.6172 421.014 Q16.6172 419.302 16.1784 418.452 Q15.7451 417.596 14.8731 417.596 M14.8731 416.707 Q16.2672 416.707 17.0004 417.813 Q17.7392 418.913 17.7392 421.014 Q17.7392 423.11 17.0004 424.216 Q16.2672 425.316 14.8731 425.316 Q13.4789 425.316 12.7401 424.216 Q12.0069 423.11 12.0069 421.014 Q12.0069 418.913 12.7401 417.813 Q13.4789 416.707 14.8731 416.707 Z" fill="#000000" fill-rule="evenodd" fill-opacity="1" /><path clip-path="url(#clip090)" d="M 0 0 M18.9556 423.743 L20.1276 423.743 L20.1276 425.155 L18.9556 425.155 L18.9556 423.743 Z" fill="#000000" fill-rule="evenodd" fill-opacity="1" /><path clip-path="url(#clip090)" d="M 0 0 M23.7436 417.596 Q22.8771 417.596 22.4383 418.452 Q22.005 419.302 22.005 421.014 Q22.005 422.721 22.4383 423.577 Q22.8771 424.427 23.7436 424.427 Q24.6156 424.427 25.0489 423.577 Q25.4877 422.721 25.4877 421.014 Q25.4877 419.302 25.0489 418.452 Q24.6156 417.596 23.7436 417.596 M23.7436 416.707 Q25.1378 416.707 25.871 417.813 Q26.6097 418.913 26.6097 421.014 Q26.6097 423.11 25.871 424.216 Q25.1378 425.316 23.7436 425.316 Q22.3494 425.316 21.6107 424.216 Q20.8775 423.11 20.8775 421.014 Q20.8775 418.913 21.6107 417.813 Q22.3494 416.707 23.7436 416.707 Z" fill="#000000" fill-rule="evenodd" fill-opacity="1" /><path clip-path="url(#clip090)" d="M 0 0 M30.2257 417.596 Q29.3592 417.596 28.9204 418.452 Q28.4871 419.302 28.4871 421.014 Q28.4871 422.721 28.9204 423.577 Q29.3592 424.427 30.2257 424.427 Q31.0977 424.427 31.531 423.577 Q31.9698 422.721 31.9698 421.014 Q31.9698 419.302 31.531 418.452 Q31.0977 417.596 30.2257 417.596 M30.2257 416.707 Q31.6199 416.707 32.353 417.813 Q33.0918 418.913 33.0918 421.014 Q33.0918 423.11 32.353 424.216 Q31.6199 425.316 30.2257 425.316 Q28.8315 425.316 28.0928 424.216 Q27.3596 423.11 27.3596 421.014 Q27.3596 418.913 28.0928 417.813 Q28.8315 416.707 30.2257 416.707 Z" fill="#000000" fill-rule="evenodd" fill-opacity="1" /><path clip-path="url(#clip090)" d="M 0 0 M15.2563 308.078 Q14.3898 308.078 13.951 308.934 Q13.5178 309.784 13.5178 311.496 Q13.5178 313.202 13.951 314.058 Q14.3898 314.909 15.2563 314.909 Q16.1284 314.909 16.5616 314.058 Q17.0004 313.202 17.0004 311.496 Q17.0004 309.784 16.5616 308.934 Q16.1284 308.078 15.2563 308.078 M15.2563 307.189 Q16.6505 307.189 17.3837 308.295 Q18.1224 309.395 18.1224 311.496 Q18.1224 313.591 17.3837 314.697 Q16.6505 315.798 15.2563 315.798 Q13.8621 315.798 13.1234 314.697 Q12.3902 313.591 12.3902 311.496 Q12.3902 309.395 13.1234 308.295 Q13.8621 307.189 15.2563 307.189 Z" fill="#000000" fill-rule="evenodd" fill-opacity="1" /><path clip-path="url(#clip090)" d="M 0 0 M19.3389 314.225 L20.5109 314.225 L20.5109 315.637 L19.3389 315.637 L19.3389 314.225 Z" fill="#000000" fill-rule="evenodd" fill-opacity="1" /><path clip-path="url(#clip090)" d="M 0 0 M24.1268 308.078 Q23.2603 308.078 22.8215 308.934 Q22.3883 309.784 22.3883 311.496 Q22.3883 313.202 22.8215 314.058 Q23.2603 314.909 24.1268 314.909 Q24.9989 314.909 25.4322 314.058 Q25.871 313.202 25.871 311.496 Q25.871 309.784 25.4322 308.934 Q24.9989 308.078 24.1268 308.078 M24.1268 307.189 Q25.521 307.189 26.2542 308.295 Q26.993 309.395 26.993 311.496 Q26.993 313.591 26.2542 314.697 Q25.521 315.798 24.1268 315.798 Q22.7327 315.798 21.9939 314.697 Q21.2607 313.591 21.2607 311.496 Q21.2607 309.395 21.9939 308.295 Q22.7327 307.189 24.1268 307.189 Z" fill="#000000" fill-rule="evenodd" fill-opacity="1" /><path clip-path="url(#clip090)" d="M 0 0 M29.1759 314.692 L33.0918 314.692 L33.0918 315.637 L27.8261 315.637 L27.8261 314.692 Q28.4649 314.03 29.5647 312.919 Q30.67 311.802 30.9533 311.479 Q31.4921 310.873 31.7032 310.457 Q31.9198 310.034 31.9198 309.629 Q31.9198 308.967 31.4532 308.55 Q30.9922 308.133 30.2479 308.133 Q29.7202 308.133 29.1314 308.317 Q28.5482 308.5 27.8817 308.873 L27.8817 307.739 Q28.5593 307.466 29.1481 307.328 Q29.7369 307.189 30.2257 307.189 Q31.5143 307.189 32.2808 307.833 Q33.0474 308.478 33.0474 309.556 Q33.0474 310.068 32.853 310.529 Q32.6641 310.985 32.1586 311.607 Q32.0198 311.768 31.2755 312.541 Q30.5312 313.308 29.1759 314.692 Z" fill="#000000" fill-rule="evenodd" fill-opacity="1" /><path clip-path="url(#clip090)" d="M 0 0 M14.7564 198.559 Q13.8899 198.559 13.4511 199.415 Q13.0179 200.266 13.0179 201.978 Q13.0179 203.684 13.4511 204.54 Q13.8899 205.39 14.7564 205.39 Q15.6285 205.39 16.0617 204.54 Q16.5005 203.684 16.5005 201.978 Q16.5005 200.266 16.0617 199.415 Q15.6285 198.559 14.7564 198.559 M14.7564 197.67 Q16.1506 197.67 16.8838 198.776 Q17.6225 199.877 17.6225 201.978 Q17.6225 204.073 16.8838 205.179 Q16.1506 206.279 14.7564 206.279 Q13.3622 206.279 12.6235 205.179 Q11.8903 204.073 11.8903 201.978 Q11.8903 199.877 12.6235 198.776 Q13.3622 197.67 14.7564 197.67 Z" fill="#000000" fill-rule="evenodd" fill-opacity="1" /><path clip-path="url(#clip090)" d="M 0 0 M18.839 204.707 L20.011 204.707 L20.011 206.118 L18.839 206.118 L18.839 204.707 Z" fill="#000000" fill-rule="evenodd" fill-opacity="1" /><path clip-path="url(#clip090)" d="M 0 0 M23.6269 198.559 Q22.7604 198.559 22.3216 199.415 Q21.8884 200.266 21.8884 201.978 Q21.8884 203.684 22.3216 204.54 Q22.7604 205.39 23.6269 205.39 Q24.499 205.39 24.9322 204.54 Q25.3711 203.684 25.3711 201.978 Q25.3711 200.266 24.9322 199.415 Q24.499 198.559 23.6269 198.559 M23.6269 197.67 Q25.0211 197.67 25.7543 198.776 Q26.4931 199.877 26.4931 201.978 Q26.4931 204.073 25.7543 205.179 Q25.0211 206.279 23.6269 206.279 Q22.2328 206.279 21.494 205.179 Q20.7608 204.073 20.7608 201.978 Q20.7608 199.877 21.494 198.776 Q22.2328 197.67 23.6269 197.67 Z" fill="#000000" fill-rule="evenodd" fill-opacity="1" /><path clip-path="url(#clip090)" d="M 0 0 M30.7922 198.798 L27.9594 203.228 L30.7922 203.228 L30.7922 198.798 M30.4978 197.82 L31.9087 197.82 L31.9087 203.228 L33.0918 203.228 L33.0918 204.162 L31.9087 204.162 L31.9087 206.118 L30.7922 206.118 L30.7922 204.162 L27.0485 204.162 L27.0485 203.078 L30.4978 197.82 Z" fill="#000000" fill-rule="evenodd" fill-opacity="1" /><path clip-path="url(#clip090)" d="M 0 0 M14.8342 89.0411 Q13.9677 89.0411 13.5289 89.8971 Q13.0956 90.7474 13.0956 92.4593 Q13.0956 94.1656 13.5289 95.0215 Q13.9677 95.8719 14.8342 95.8719 Q15.7062 95.8719 16.1395 95.0215 Q16.5783 94.1656 16.5783 92.4593 Q16.5783 90.7474 16.1395 89.8971 Q15.7062 89.0411 14.8342 89.0411 M14.8342 88.1519 Q16.2284 88.1519 16.9615 89.2579 Q17.7003 90.3584 17.7003 92.4593 Q17.7003 94.5546 16.9615 95.6607 Q16.2284 96.7611 14.8342 96.7611 Q13.44 96.7611 12.7013 95.6607 Q11.9681 94.5546 11.9681 92.4593 Q11.9681 90.3584 12.7013 89.2579 Q13.44 88.1519 14.8342 88.1519 Z" fill="#000000" fill-rule="evenodd" fill-opacity="1" /><path clip-path="url(#clip090)" d="M 0 0 M18.9167 95.1882 L20.0887 95.1882 L20.0887 96.5999 L18.9167 96.5999 L18.9167 95.1882 Z" fill="#000000" fill-rule="evenodd" fill-opacity="1" /><path clip-path="url(#clip090)" d="M 0 0 M23.7047 89.0411 Q22.8382 89.0411 22.3994 89.8971 Q21.9661 90.7474 21.9661 92.4593 Q21.9661 94.1656 22.3994 95.0215 Q22.8382 95.8719 23.7047 95.8719 Q24.5768 95.8719 25.01 95.0215 Q25.4488 94.1656 25.4488 92.4593 Q25.4488 90.7474 25.01 89.8971 Q24.5768 89.0411 23.7047 89.0411 M23.7047 88.1519 Q25.0989 88.1519 25.8321 89.2579 Q26.5708 90.3584 26.5708 92.4593 Q26.5708 94.5546 25.8321 95.6607 Q25.0989 96.7611 23.7047 96.7611 Q22.3105 96.7611 21.5718 95.6607 Q20.8386 94.5546 20.8386 92.4593 Q20.8386 90.3584 21.5718 89.2579 Q22.3105 88.1519 23.7047 88.1519 Z" fill="#000000" fill-rule="evenodd" fill-opacity="1" /><path clip-path="url(#clip090)" d="M 0 0 M30.3257 92.0035 Q29.5702 92.0035 29.1259 92.5204 Q28.6871 93.0373 28.6871 93.9377 Q28.6871 94.8325 29.1259 95.355 Q29.5702 95.8719 30.3257 95.8719 Q31.0811 95.8719 31.5199 95.355 Q31.9642 94.8325 31.9642 93.9377 Q31.9642 93.0373 31.5199 92.5204 Q31.0811 92.0035 30.3257 92.0035 M32.553 88.4854 L32.553 89.508 Q32.1309 89.3079 31.6976 89.2023 Q31.2699 89.0967 30.8478 89.0967 Q29.7369 89.0967 29.1481 89.847 Q28.5649 90.5974 28.4816 92.1147 Q28.8093 91.6311 29.3036 91.3755 Q29.798 91.1143 30.3923 91.1143 Q31.6421 91.1143 32.3642 91.8757 Q33.0918 92.6316 33.0918 93.9377 Q33.0918 95.216 32.3364 95.9886 Q31.581 96.7611 30.3257 96.7611 Q28.887 96.7611 28.1261 95.6607 Q27.3651 94.5546 27.3651 92.4593 Q27.3651 90.4918 28.2983 89.3246 Q29.2314 88.1519 30.8033 88.1519 Q31.2255 88.1519 31.6532 88.2352 Q32.0864 88.3186 32.553 88.4854 Z" fill="#000000" fill-rule="evenodd" fill-opacity="1" /><path clip-path="url(#clip090)" d="M 0 0 M279.213 4.02283 L279.213 6.09456 Q278.221 5.17055 277.094 4.71341 Q275.976 4.25627 274.712 4.25627 Q272.224 4.25627 270.902 5.78331 Q269.58 7.30063 269.58 10.1796 Q269.58 13.0489 270.902 14.576 Q272.224 16.0933 274.712 16.0933 Q275.976 16.0933 277.094 15.6361 Q278.221 15.179 279.213 14.255 L279.213 16.3073 Q278.182 17.0076 277.025 17.3577 Q275.878 17.7079 274.595 17.7079 Q271.3 17.7079 269.405 15.6945 Q267.509 13.6714 267.509 10.1796 Q267.509 6.67814 269.405 4.66478 Q271.3 2.64169 274.595 2.64169 Q275.898 2.64169 277.045 2.99184 Q278.202 3.33226 279.213 4.02283 Z" fill="#000000" fill-rule="evenodd" fill-opacity="1" /><path clip-path="url(#clip090)" d="M 0 0 M285.307 7.78695 Q283.869 7.78695 283.033 8.91521 Q282.197 10.0337 282.197 11.9887 Q282.197 13.9438 283.023 15.072 Q283.859 16.1905 285.307 16.1905 Q286.736 16.1905 287.572 15.0623 Q288.408 13.934 288.408 11.9887 Q288.408 10.0532 287.572 8.92494 Q286.736 7.78695 285.307 7.78695 M285.307 6.26963 Q287.64 6.26963 288.972 7.78695 Q290.303 9.30426 290.303 11.9887 Q290.303 14.6635 288.972 16.1905 Q287.64 17.7079 285.307 17.7079 Q282.965 17.7079 281.633 16.1905 Q280.311 14.6635 280.311 11.9887 Q280.311 9.30426 281.633 7.78695 Q282.965 6.26963 285.307 6.26963 Z" fill="#000000" fill-rule="evenodd" fill-opacity="1" /><path clip-path="url(#clip090)" d="M 0 0 M296.398 7.78695 Q294.96 7.78695 294.124 8.91521 Q293.288 10.0337 293.288 11.9887 Q293.288 13.9438 294.114 15.072 Q294.95 16.1905 296.398 16.1905 Q297.827 16.1905 298.663 15.0623 Q299.499 13.934 299.499 11.9887 Q299.499 10.0532 298.663 8.92494 Q297.827 7.78695 296.398 7.78695 M296.398 6.26963 Q298.731 6.26963 300.063 7.78695 Q301.394 9.30426 301.394 11.9887 Q301.394 14.6635 300.063 16.1905 Q298.731 17.7079 296.398 17.7079 Q294.056 17.7079 292.724 16.1905 Q291.402 14.6635 291.402 11.9887 Q291.402 9.30426 292.724 7.78695 Q294.056 6.26963 296.398 6.26963 Z" fill="#000000" fill-rule="evenodd" fill-opacity="1" /><path clip-path="url(#clip090)" d="M 0 0 M303.202 2.29154 L305.001 2.29154 L305.001 11.2301 L310.337 6.53224 L312.621 6.53224 L306.848 11.6289 L312.864 17.4258 L310.532 17.4258 L305.001 12.1055 L305.001 17.4258 L303.202 17.4258 L303.202 2.29154 Z" fill="#000000" fill-rule="evenodd" fill-opacity="1" /><path clip-path="url(#clip090)" d="M 0 0 M316.432 2.9043 L316.432 8.30245 L314.779 8.30245 L314.779 2.9043 L316.432 2.9043 Z" fill="#000000" fill-rule="evenodd" fill-opacity="1" /><path clip-path="url(#clip090)" d="M 0 0 M325.248 6.85321 L325.248 8.54561 Q324.49 8.15655 323.673 7.96202 Q322.857 7.76749 321.982 7.76749 Q320.65 7.76749 319.98 8.176 Q319.319 8.58451 319.319 9.40153 Q319.319 10.024 319.795 10.3839 Q320.271 10.734 321.71 11.055 L322.322 11.1912 Q324.228 11.5997 325.025 12.3486 Q325.831 13.0878 325.831 14.4203 Q325.831 15.9377 324.626 16.8228 Q323.43 17.7079 321.331 17.7079 Q320.456 17.7079 319.503 17.5328 Q318.561 17.3674 317.511 17.027 L317.511 15.179 Q318.502 15.6945 319.465 15.9571 Q320.427 16.21 321.37 16.21 Q322.633 16.21 323.314 15.782 Q323.994 15.3444 323.994 14.5565 Q323.994 13.827 323.499 13.438 Q323.013 13.0489 321.35 12.689 L320.728 12.5432 Q319.066 12.193 318.327 11.4732 Q317.589 10.7438 317.589 9.47934 Q317.589 7.94257 318.677 7.1061 Q319.766 6.26963 321.768 6.26963 Q322.76 6.26963 323.635 6.41553 Q324.509 6.56142 325.248 6.85321 Z" fill="#000000" fill-rule="evenodd" fill-opacity="1" /><path clip-path="url(#clip090)" d="M 0 0 M336.077 4.51888 L336.077 15.8112 L338.448 15.8112 Q341.452 15.8112 342.842 14.4495 Q344.242 13.0878 344.242 10.1505 Q344.242 7.23254 342.842 5.88058 Q341.452 4.51888 338.448 4.51888 L336.077 4.51888 M334.113 2.9043 L338.147 2.9043 Q342.366 2.9043 344.339 4.66478 Q346.312 6.41553 346.312 10.1505 Q346.312 13.9048 344.329 15.6653 Q342.346 17.4258 338.147 17.4258 L334.113 17.4258 L334.113 2.9043 Z" fill="#000000" fill-rule="evenodd" fill-opacity="1" /><path clip-path="url(#clip090)" d="M 0 0 M348.188 6.53224 L349.977 6.53224 L349.977 17.4258 L348.188 17.4258 L348.188 6.53224 M348.188 2.29154 L349.977 2.29154 L349.977 4.55779 L348.188 4.55779 L348.188 2.29154 Z" fill="#000000" fill-rule="evenodd" fill-opacity="1" /><path clip-path="url(#clip090)" d="M 0 0 M358.793 6.85321 L358.793 8.54561 Q358.035 8.15655 357.218 7.96202 Q356.402 7.76749 355.527 7.76749 Q354.195 7.76749 353.525 8.176 Q352.864 8.58451 352.864 9.40153 Q352.864 10.024 353.34 10.3839 Q353.816 10.734 355.255 11.055 L355.867 11.1912 Q357.773 11.5997 358.57 12.3486 Q359.376 13.0878 359.376 14.4203 Q359.376 15.9377 358.171 16.8228 Q356.975 17.7079 354.876 17.7079 Q354.001 17.7079 353.048 17.5328 Q352.106 17.3674 351.056 17.027 L351.056 15.179 Q352.047 15.6945 353.01 15.9571 Q353.972 16.21 354.915 16.21 Q356.178 16.21 356.859 15.782 Q357.539 15.3444 357.539 14.5565 Q357.539 13.827 357.044 13.438 Q356.557 13.0489 354.895 12.689 L354.273 12.5432 Q352.611 12.193 351.872 11.4732 Q351.134 10.7438 351.134 9.47934 Q351.134 7.94257 352.222 7.1061 Q353.311 6.26963 355.313 6.26963 Q356.305 6.26963 357.18 6.41553 Q358.054 6.56142 358.793 6.85321 Z" fill="#000000" fill-rule="evenodd" fill-opacity="1" /><path clip-path="url(#clip090)" d="M 0 0 M363.022 3.43925 L363.022 6.53224 L366.706 6.53224 L366.706 7.92312 L363.022 7.92312 L363.022 13.8368 Q363.022 15.1693 363.381 15.5486 Q363.751 15.9279 364.868 15.9279 L366.706 15.9279 L366.706 17.4258 L364.868 17.4258 Q362.798 17.4258 362.011 16.6574 Q361.223 15.8793 361.223 13.8368 L361.223 7.92312 L359.911 7.92312 L359.911 6.53224 L361.223 6.53224 L361.223 3.43925 L363.022 3.43925 Z" fill="#000000" fill-rule="evenodd" fill-opacity="1" /><path clip-path="url(#clip090)" d="M 0 0 M373.529 11.9498 Q371.362 11.9498 370.526 12.4459 Q369.69 12.9419 369.69 14.1383 Q369.69 15.0915 370.312 15.6556 Q370.944 16.21 372.023 16.21 Q373.51 16.21 374.404 15.1596 Q375.308 14.0994 375.308 12.3486 L375.308 11.9498 L373.529 11.9498 M377.097 11.2106 L377.097 17.4258 L375.308 17.4258 L375.308 15.7723 Q374.696 16.7644 373.782 17.241 Q372.868 17.7079 371.546 17.7079 Q369.874 17.7079 368.883 16.7741 Q367.901 15.8307 367.901 14.255 Q367.901 12.4167 369.126 11.483 Q370.36 10.5492 372.8 10.5492 L375.308 10.5492 L375.308 10.3742 Q375.308 9.13892 374.492 8.46779 Q373.685 7.78695 372.217 7.78695 Q371.284 7.78695 370.399 8.01065 Q369.515 8.23436 368.698 8.68178 L368.698 7.02829 Q369.68 6.64896 370.603 6.46416 Q371.527 6.26963 372.402 6.26963 Q374.764 6.26963 375.93 7.49516 Q377.097 8.72068 377.097 11.2106 Z" fill="#000000" fill-rule="evenodd" fill-opacity="1" /><path clip-path="url(#clip090)" d="M 0 0 M388.022 10.8508 L388.022 17.4258 L386.234 17.4258 L386.234 10.9091 Q386.234 9.36262 385.631 8.59424 Q385.028 7.82585 383.823 7.82585 Q382.375 7.82585 381.539 8.74986 Q380.703 9.67387 380.703 11.269 L380.703 17.4258 L378.905 17.4258 L378.905 6.53224 L380.703 6.53224 L380.703 8.22464 Q381.344 7.24227 382.21 6.75595 Q383.084 6.26963 384.222 6.26963 Q386.098 6.26963 387.06 7.4368 Q388.022 8.59424 388.022 10.8508 Z" fill="#000000" fill-rule="evenodd" fill-opacity="1" /><path clip-path="url(#clip090)" d="M 0 0 M397.733 6.95048 L397.733 8.62342 Q396.975 8.20518 396.207 8.00093 Q395.449 7.78695 394.671 7.78695 Q392.931 7.78695 391.969 8.89576 Q391.006 9.99484 391.006 11.9887 Q391.006 13.9827 391.969 15.0915 Q392.931 16.1905 394.671 16.1905 Q395.449 16.1905 396.207 15.9863 Q396.975 15.7723 397.733 15.3541 L397.733 17.0076 Q396.984 17.3577 396.178 17.5328 Q395.381 17.7079 394.477 17.7079 Q392.017 17.7079 390.569 16.1614 Q389.121 14.6149 389.121 11.9887 Q389.121 9.32372 390.579 7.79667 Q392.047 6.26963 394.593 6.26963 Q395.419 6.26963 396.207 6.44471 Q396.994 6.61005 397.733 6.95048 Z" fill="#000000" fill-rule="evenodd" fill-opacity="1" /><path clip-path="url(#clip090)" d="M 0 0 M408.921 11.5316 L408.921 12.407 L400.698 12.407 Q400.814 14.255 401.806 15.2276 Q402.807 16.1905 404.586 16.1905 Q405.616 16.1905 406.578 15.9377 Q407.551 15.6848 408.503 15.179 L408.503 16.8714 Q407.541 17.2799 406.53 17.4939 Q405.519 17.7079 404.479 17.7079 Q401.874 17.7079 400.348 16.1905 Q398.831 14.6732 398.831 12.086 Q398.831 9.41125 400.27 7.84531 Q401.718 6.26963 404.168 6.26963 Q406.365 6.26963 407.638 7.68968 Q408.921 9.10001 408.921 11.5316 M407.133 11.0064 Q407.113 9.5377 406.306 8.66232 Q405.509 7.78695 404.187 7.78695 Q402.69 7.78695 401.786 8.63314 Q400.892 9.47934 400.756 11.0161 L407.133 11.0064 Z" fill="#000000" fill-rule="evenodd" fill-opacity="1" /><polyline clip-path="url(#clip092)" style="stroke:#009af9; stroke-width:0.960417; stroke-opacity:1; fill:none" points="
  59.4903,421.006 59.4903,415.227 
  "/>
<polyline clip-path="url(#clip092)" style="stroke:#009af9; stroke-width:0.960417; stroke-opacity:1; fill:none" points="
  61.1694,421.006 61.1694,404.514 
  "/>
<polyline clip-path="url(#clip092)" style="stroke:#009af9; stroke-width:0.960417; stroke-opacity:1; fill:none" points="
  62.8484,421.006 62.8484,405.851 
  "/>
<polyline clip-path="url(#clip092)" style="stroke:#009af9; stroke-width:0.960417; stroke-opacity:1; fill:none" points="
  64.5275,421.006 64.5275,420.991 
  "/>
<polyline clip-path="url(#clip092)" style="stroke:#009af9; stroke-width:0.960417; stroke-opacity:1; fill:none" points="
  66.2065,421.006 66.2065,419.091 
  "/>
<polyline clip-path="url(#clip092)" style="stroke:#009af9; stroke-width:0.960417; stroke-opacity:1; fill:none" points="
  67.8856,421.006 67.8856,394.241 
  "/>
<polyline clip-path="url(#clip092)" style="stroke:#009af9; stroke-width:0.960417; stroke-opacity:1; fill:none" points="
  69.5647,421.006 69.5647,372.099 
  "/>
<polyline clip-path="url(#clip092)" style="stroke:#009af9; stroke-width:0.960417; stroke-opacity:1; fill:none" points="
  71.2437,421.006 71.2437,420.883 
  "/>
<polyline clip-path="url(#clip092)" style="stroke:#009af9; stroke-width:0.960417; stroke-opacity:1; fill:none" points="
  72.9228,421.006 72.9228,420.555 
  "/>
<polyline clip-path="url(#clip092)" style="stroke:#009af9; stroke-width:0.960417; stroke-opacity:1; fill:none" points="
  74.6019,421.006 74.6019,366.698 
  "/>
<polyline clip-path="url(#clip092)" style="stroke:#009af9; stroke-width:0.960417; stroke-opacity:1; fill:none" points="
  76.2809,421.006 76.2809,403.942 
  "/>
<polyline clip-path="url(#clip092)" style="stroke:#009af9; stroke-width:0.960417; stroke-opacity:1; fill:none" points="
  77.96,421.006 77.96,418.769 
  "/>
<polyline clip-path="url(#clip092)" style="stroke:#009af9; stroke-width:0.960417; stroke-opacity:1; fill:none" points="
  79.6391,421.006 79.6391,383.822 
  "/>
<polyline clip-path="url(#clip092)" style="stroke:#009af9; stroke-width:0.960417; stroke-opacity:1; fill:none" points="
  81.3181,421.006 81.3181,418.564 
  "/>
<polyline clip-path="url(#clip092)" style="stroke:#009af9; stroke-width:0.960417; stroke-opacity:1; fill:none" points="
  82.9972,421.006 82.9972,391.273 
  "/>
<polyline clip-path="url(#clip092)" style="stroke:#009af9; stroke-width:0.960417; stroke-opacity:1; fill:none" points="
  84.6763,421.006 84.6763,366.081 
  "/>
<polyline clip-path="url(#clip092)" style="stroke:#009af9; stroke-width:0.960417; stroke-opacity:1; fill:none" points="
  86.3553,421.006 86.3553,420.311 
  "/>
<polyline clip-path="url(#clip092)" style="stroke:#009af9; stroke-width:0.960417; stroke-opacity:1; fill:none" points="
  88.0344,421.006 88.0344,375.729 
  "/>
<polyline clip-path="url(#clip092)" style="stroke:#009af9; stroke-width:0.960417; stroke-opacity:1; fill:none" points="
  89.7135,421.006 89.7135,415.947 
  "/>
<polyline clip-path="url(#clip092)" style="stroke:#009af9; stroke-width:0.960417; stroke-opacity:1; fill:none" points="
  91.3925,421.006 91.3925,414.753 
  "/>
<polyline clip-path="url(#clip092)" style="stroke:#009af9; stroke-width:0.960417; stroke-opacity:1; fill:none" points="
  93.0716,421.006 93.0716,374.54 
  "/>
<polyline clip-path="url(#clip092)" style="stroke:#009af9; stroke-width:0.960417; stroke-opacity:1; fill:none" points="
  94.7507,421.006 94.7507,418.803 
  "/>
<polyline clip-path="url(#clip092)" style="stroke:#009af9; stroke-width:0.960417; stroke-opacity:1; fill:none" points="
  96.4297,421.006 96.4297,419.522 
  "/>
<polyline clip-path="url(#clip092)" style="stroke:#009af9; stroke-width:0.960417; stroke-opacity:1; fill:none" points="
  98.1088,421.006 98.1088,386.139 
  "/>
<polyline clip-path="url(#clip092)" style="stroke:#009af9; stroke-width:0.960417; stroke-opacity:1; fill:none" points="
  99.7879,421.006 99.7879,383.862 
  "/>
<polyline clip-path="url(#clip092)" style="stroke:#009af9; stroke-width:0.960417; stroke-opacity:1; fill:none" points="
  101.467,421.006 101.467,416.329 
  "/>
<polyline clip-path="url(#clip092)" style="stroke:#009af9; stroke-width:0.960417; stroke-opacity:1; fill:none" points="
  103.146,421.006 103.146,376.555 
  "/>
<polyline clip-path="url(#clip092)" style="stroke:#009af9; stroke-width:0.960417; stroke-opacity:1; fill:none" points="
  104.825,421.006 104.825,420.438 
  "/>
<polyline clip-path="url(#clip092)" style="stroke:#009af9; stroke-width:0.960417; stroke-opacity:1; fill:none" points="
  106.504,421.006 106.504,413.472 
  "/>
<polyline clip-path="url(#clip092)" style="stroke:#009af9; stroke-width:0.960417; stroke-opacity:1; fill:none" points="
  108.183,421.006 108.183,402.222 
  "/>
<polyline clip-path="url(#clip092)" style="stroke:#009af9; stroke-width:0.960417; stroke-opacity:1; fill:none" points="
  109.862,421.006 109.862,411.843 
  "/>
<polyline clip-path="url(#clip092)" style="stroke:#009af9; stroke-width:0.960417; stroke-opacity:1; fill:none" points="
  111.541,421.006 111.541,418.778 
  "/>
<polyline clip-path="url(#clip092)" style="stroke:#009af9; stroke-width:0.960417; stroke-opacity:1; fill:none" points="
  113.22,421.006 113.22,380.25 
  "/>
<polyline clip-path="url(#clip092)" style="stroke:#009af9; stroke-width:0.960417; stroke-opacity:1; fill:none" points="
  114.899,421.006 114.899,408.201 
  "/>
<polyline clip-path="url(#clip092)" style="stroke:#009af9; stroke-width:0.960417; stroke-opacity:1; fill:none" points="
  116.579,421.006 116.579,282.497 
  "/>
<polyline clip-path="url(#clip092)" style="stroke:#009af9; stroke-width:0.960417; stroke-opacity:1; fill:none" points="
  118.258,421.006 118.258,421.001 
  "/>
<polyline clip-path="url(#clip092)" style="stroke:#009af9; stroke-width:0.960417; stroke-opacity:1; fill:none" points="
  119.937,421.006 119.937,415.734 
  "/>
<polyline clip-path="url(#clip092)" style="stroke:#009af9; stroke-width:0.960417; stroke-opacity:1; fill:none" points="
  121.616,421.006 121.616,418.012 
  "/>
<polyline clip-path="url(#clip092)" style="stroke:#009af9; stroke-width:0.960417; stroke-opacity:1; fill:none" points="
  123.295,421.006 123.295,411.243 
  "/>
<polyline clip-path="url(#clip092)" style="stroke:#009af9; stroke-width:0.960417; stroke-opacity:1; fill:none" points="
  124.974,421.006 124.974,408.405 
  "/>
<polyline clip-path="url(#clip092)" style="stroke:#009af9; stroke-width:0.960417; stroke-opacity:1; fill:none" points="
  126.653,421.006 126.653,370.207 
  "/>
<polyline clip-path="url(#clip092)" style="stroke:#009af9; stroke-width:0.960417; stroke-opacity:1; fill:none" points="
  128.332,421.006 128.332,416.56 
  "/>
<polyline clip-path="url(#clip092)" style="stroke:#009af9; stroke-width:0.960417; stroke-opacity:1; fill:none" points="
  130.011,421.006 130.011,420.984 
  "/>
<polyline clip-path="url(#clip092)" style="stroke:#009af9; stroke-width:0.960417; stroke-opacity:1; fill:none" points="
  131.69,421.006 131.69,393.845 
  "/>
<polyline clip-path="url(#clip092)" style="stroke:#009af9; stroke-width:0.960417; stroke-opacity:1; fill:none" points="
  133.369,421.006 133.369,418.374 
  "/>
<polyline clip-path="url(#clip092)" style="stroke:#009af9; stroke-width:0.960417; stroke-opacity:1; fill:none" points="
  135.048,421.006 135.048,395.957 
  "/>
<polyline clip-path="url(#clip092)" style="stroke:#009af9; stroke-width:0.960417; stroke-opacity:1; fill:none" points="
  136.727,421.006 136.727,420.971 
  "/>
<polyline clip-path="url(#clip092)" style="stroke:#009af9; stroke-width:0.960417; stroke-opacity:1; fill:none" points="
  138.406,421.006 138.406,417.136 
  "/>
<polyline clip-path="url(#clip092)" style="stroke:#009af9; stroke-width:0.960417; stroke-opacity:1; fill:none" points="
  140.085,421.006 140.085,395.303 
  "/>
<polyline clip-path="url(#clip092)" style="stroke:#009af9; stroke-width:0.960417; stroke-opacity:1; fill:none" points="
  141.764,421.006 141.764,413.936 
  "/>
<polyline clip-path="url(#clip092)" style="stroke:#009af9; stroke-width:0.960417; stroke-opacity:1; fill:none" points="
  143.444,421.006 143.444,417.391 
  "/>
<polyline clip-path="url(#clip092)" style="stroke:#009af9; stroke-width:0.960417; stroke-opacity:1; fill:none" points="
  145.123,421.006 145.123,416.112 
  "/>
<polyline clip-path="url(#clip092)" style="stroke:#009af9; stroke-width:0.960417; stroke-opacity:1; fill:none" points="
  146.802,421.006 146.802,400.18 
  "/>
<polyline clip-path="url(#clip092)" style="stroke:#009af9; stroke-width:0.960417; stroke-opacity:1; fill:none" points="
  148.481,421.006 148.481,408.338 
  "/>
<polyline clip-path="url(#clip092)" style="stroke:#009af9; stroke-width:0.960417; stroke-opacity:1; fill:none" points="
  150.16,421.006 150.16,416.185 
  "/>
<polyline clip-path="url(#clip092)" style="stroke:#009af9; stroke-width:0.960417; stroke-opacity:1; fill:none" points="
  151.839,421.006 151.839,374.754 
  "/>
<polyline clip-path="url(#clip092)" style="stroke:#009af9; stroke-width:0.960417; stroke-opacity:1; fill:none" points="
  153.518,421.006 153.518,414.766 
  "/>
<polyline clip-path="url(#clip092)" style="stroke:#009af9; stroke-width:0.960417; stroke-opacity:1; fill:none" points="
  155.197,421.006 155.197,421.003 
  "/>
<polyline clip-path="url(#clip092)" style="stroke:#009af9; stroke-width:0.960417; stroke-opacity:1; fill:none" points="
  156.876,421.006 156.876,399.808 
  "/>
<polyline clip-path="url(#clip092)" style="stroke:#009af9; stroke-width:0.960417; stroke-opacity:1; fill:none" points="
  158.555,421.006 158.555,419.657 
  "/>
<polyline clip-path="url(#clip092)" style="stroke:#009af9; stroke-width:0.960417; stroke-opacity:1; fill:none" points="
  160.234,421.006 160.234,394.717 
  "/>
<polyline clip-path="url(#clip092)" style="stroke:#009af9; stroke-width:0.960417; stroke-opacity:1; fill:none" points="
  161.913,421.006 161.913,412.243 
  "/>
<polyline clip-path="url(#clip092)" style="stroke:#009af9; stroke-width:0.960417; stroke-opacity:1; fill:none" points="
  163.592,421.006 163.592,391.609 
  "/>
<polyline clip-path="url(#clip092)" style="stroke:#009af9; stroke-width:0.960417; stroke-opacity:1; fill:none" points="
  165.271,421.006 165.271,413.864 
  "/>
<polyline clip-path="url(#clip092)" style="stroke:#009af9; stroke-width:0.960417; stroke-opacity:1; fill:none" points="
  166.95,421.006 166.95,408.65 
  "/>
<polyline clip-path="url(#clip092)" style="stroke:#009af9; stroke-width:0.960417; stroke-opacity:1; fill:none" points="
  168.63,421.006 168.63,420.67 
  "/>
<polyline clip-path="url(#clip092)" style="stroke:#009af9; stroke-width:0.960417; stroke-opacity:1; fill:none" points="
  170.309,421.006 170.309,417.978 
  "/>
<polyline clip-path="url(#clip092)" style="stroke:#009af9; stroke-width:0.960417; stroke-opacity:1; fill:none" points="
  171.988,421.006 171.988,420.984 
  "/>
<polyline clip-path="url(#clip092)" style="stroke:#009af9; stroke-width:0.960417; stroke-opacity:1; fill:none" points="
  173.667,421.006 173.667,416.389 
  "/>
<polyline clip-path="url(#clip092)" style="stroke:#009af9; stroke-width:0.960417; stroke-opacity:1; fill:none" points="
  175.346,421.006 175.346,419.956 
  "/>
<polyline clip-path="url(#clip092)" style="stroke:#009af9; stroke-width:0.960417; stroke-opacity:1; fill:none" points="
  177.025,421.006 177.025,420.144 
  "/>
<polyline clip-path="url(#clip092)" style="stroke:#009af9; stroke-width:0.960417; stroke-opacity:1; fill:none" points="
  178.704,421.006 178.704,410.479 
  "/>
<polyline clip-path="url(#clip092)" style="stroke:#009af9; stroke-width:0.960417; stroke-opacity:1; fill:none" points="
  180.383,421.006 180.383,420.704 
  "/>
<polyline clip-path="url(#clip092)" style="stroke:#009af9; stroke-width:0.960417; stroke-opacity:1; fill:none" points="
  182.062,421.006 182.062,420.497 
  "/>
<polyline clip-path="url(#clip092)" style="stroke:#009af9; stroke-width:0.960417; stroke-opacity:1; fill:none" points="
  183.741,421.006 183.741,410.606 
  "/>
<polyline clip-path="url(#clip092)" style="stroke:#009af9; stroke-width:0.960417; stroke-opacity:1; fill:none" points="
  185.42,421.006 185.42,401.453 
  "/>
<polyline clip-path="url(#clip092)" style="stroke:#009af9; stroke-width:0.960417; stroke-opacity:1; fill:none" points="
  187.099,421.006 187.099,383.471 
  "/>
<polyline clip-path="url(#clip092)" style="stroke:#009af9; stroke-width:0.960417; stroke-opacity:1; fill:none" points="
  188.778,421.006 188.778,412.26 
  "/>
<polyline clip-path="url(#clip092)" style="stroke:#009af9; stroke-width:0.960417; stroke-opacity:1; fill:none" points="
  190.457,421.006 190.457,418.548 
  "/>
<polyline clip-path="url(#clip092)" style="stroke:#009af9; stroke-width:0.960417; stroke-opacity:1; fill:none" points="
  192.136,421.006 192.136,402.149 
  "/>
<polyline clip-path="url(#clip092)" style="stroke:#009af9; stroke-width:0.960417; stroke-opacity:1; fill:none" points="
  193.816,421.006 193.816,420.293 
  "/>
<polyline clip-path="url(#clip092)" style="stroke:#009af9; stroke-width:0.960417; stroke-opacity:1; fill:none" points="
  195.495,421.006 195.495,418.54 
  "/>
<polyline clip-path="url(#clip092)" style="stroke:#009af9; stroke-width:0.960417; stroke-opacity:1; fill:none" points="
  197.174,421.006 197.174,419.736 
  "/>
<polyline clip-path="url(#clip092)" style="stroke:#009af9; stroke-width:0.960417; stroke-opacity:1; fill:none" points="
  198.853,421.006 198.853,414.773 
  "/>
<polyline clip-path="url(#clip092)" style="stroke:#009af9; stroke-width:0.960417; stroke-opacity:1; fill:none" points="
  200.532,421.006 200.532,382.62 
  "/>
<polyline clip-path="url(#clip092)" style="stroke:#009af9; stroke-width:0.960417; stroke-opacity:1; fill:none" points="
  202.211,421.006 202.211,414.111 
  "/>
<polyline clip-path="url(#clip092)" style="stroke:#009af9; stroke-width:0.960417; stroke-opacity:1; fill:none" points="
  203.89,421.006 203.89,420.568 
  "/>
<polyline clip-path="url(#clip092)" style="stroke:#009af9; stroke-width:0.960417; stroke-opacity:1; fill:none" points="
  205.569,421.006 205.569,353.676 
  "/>
<polyline clip-path="url(#clip092)" style="stroke:#009af9; stroke-width:0.960417; stroke-opacity:1; fill:none" points="
  207.248,421.006 207.248,420.071 
  "/>
<polyline clip-path="url(#clip092)" style="stroke:#009af9; stroke-width:0.960417; stroke-opacity:1; fill:none" points="
  208.927,421.006 208.927,404.812 
  "/>
<polyline clip-path="url(#clip092)" style="stroke:#009af9; stroke-width:0.960417; stroke-opacity:1; fill:none" points="
  210.606,421.006 210.606,409.899 
  "/>
<polyline clip-path="url(#clip092)" style="stroke:#009af9; stroke-width:0.960417; stroke-opacity:1; fill:none" points="
  212.285,421.006 212.285,418.233 
  "/>
<polyline clip-path="url(#clip092)" style="stroke:#009af9; stroke-width:0.960417; stroke-opacity:1; fill:none" points="
  213.964,421.006 213.964,404.043 
  "/>
<polyline clip-path="url(#clip092)" style="stroke:#009af9; stroke-width:0.960417; stroke-opacity:1; fill:none" points="
  215.643,421.006 215.643,420.332 
  "/>
<polyline clip-path="url(#clip092)" style="stroke:#009af9; stroke-width:0.960417; stroke-opacity:1; fill:none" points="
  217.322,421.006 217.322,416.036 
  "/>
<polyline clip-path="url(#clip092)" style="stroke:#009af9; stroke-width:0.960417; stroke-opacity:1; fill:none" points="
  219.002,421.006 219.002,389.963 
  "/>
<polyline clip-path="url(#clip092)" style="stroke:#009af9; stroke-width:0.960417; stroke-opacity:1; fill:none" points="
  220.681,421.006 220.681,408.534 
  "/>
<polyline clip-path="url(#clip092)" style="stroke:#009af9; stroke-width:0.960417; stroke-opacity:1; fill:none" points="
  222.36,421.006 222.36,394.511 
  "/>
<polyline clip-path="url(#clip092)" style="stroke:#009af9; stroke-width:0.960417; stroke-opacity:1; fill:none" points="
  224.039,421.006 224.039,369.134 
  "/>
<polyline clip-path="url(#clip092)" style="stroke:#009af9; stroke-width:0.960417; stroke-opacity:1; fill:none" points="
  225.718,421.006 225.718,418.599 
  "/>
<polyline clip-path="url(#clip092)" style="stroke:#009af9; stroke-width:0.960417; stroke-opacity:1; fill:none" points="
  227.397,421.006 227.397,419.506 
  "/>
<polyline clip-path="url(#clip092)" style="stroke:#009af9; stroke-width:0.960417; stroke-opacity:1; fill:none" points="
  229.076,421.006 229.076,420.108 
  "/>
<polyline clip-path="url(#clip092)" style="stroke:#009af9; stroke-width:0.960417; stroke-opacity:1; fill:none" points="
  230.755,421.006 230.755,420.989 
  "/>
<polyline clip-path="url(#clip092)" style="stroke:#009af9; stroke-width:0.960417; stroke-opacity:1; fill:none" points="
  232.434,421.006 232.434,394.933 
  "/>
<polyline clip-path="url(#clip092)" style="stroke:#009af9; stroke-width:0.960417; stroke-opacity:1; fill:none" points="
  234.113,421.006 234.113,420.624 
  "/>
<polyline clip-path="url(#clip092)" style="stroke:#009af9; stroke-width:0.960417; stroke-opacity:1; fill:none" points="
  235.792,421.006 235.792,346.972 
  "/>
<polyline clip-path="url(#clip092)" style="stroke:#009af9; stroke-width:0.960417; stroke-opacity:1; fill:none" points="
  237.471,421.006 237.471,408.933 
  "/>
<polyline clip-path="url(#clip092)" style="stroke:#009af9; stroke-width:0.960417; stroke-opacity:1; fill:none" points="
  239.15,421.006 239.15,418.981 
  "/>
<polyline clip-path="url(#clip092)" style="stroke:#009af9; stroke-width:0.960417; stroke-opacity:1; fill:none" points="
  240.829,421.006 240.829,272.987 
  "/>
<polyline clip-path="url(#clip092)" style="stroke:#009af9; stroke-width:0.960417; stroke-opacity:1; fill:none" points="
  242.508,421.006 242.508,420.067 
  "/>
<polyline clip-path="url(#clip092)" style="stroke:#009af9; stroke-width:0.960417; stroke-opacity:1; fill:none" points="
  244.187,421.006 244.187,397.087 
  "/>
<polyline clip-path="url(#clip092)" style="stroke:#009af9; stroke-width:0.960417; stroke-opacity:1; fill:none" points="
  245.867,421.006 245.867,387.308 
  "/>
<polyline clip-path="url(#clip092)" style="stroke:#009af9; stroke-width:0.960417; stroke-opacity:1; fill:none" points="
  247.546,421.006 247.546,418.55 
  "/>
<polyline clip-path="url(#clip092)" style="stroke:#009af9; stroke-width:0.960417; stroke-opacity:1; fill:none" points="
  249.225,421.006 249.225,385.016 
  "/>
<polyline clip-path="url(#clip092)" style="stroke:#009af9; stroke-width:0.960417; stroke-opacity:1; fill:none" points="
  250.904,421.006 250.904,414.591 
  "/>
<polyline clip-path="url(#clip092)" style="stroke:#009af9; stroke-width:0.960417; stroke-opacity:1; fill:none" points="
  252.583,421.006 252.583,341.433 
  "/>
<polyline clip-path="url(#clip092)" style="stroke:#009af9; stroke-width:0.960417; stroke-opacity:1; fill:none" points="
  254.262,421.006 254.262,376.087 
  "/>
<polyline clip-path="url(#clip092)" style="stroke:#009af9; stroke-width:0.960417; stroke-opacity:1; fill:none" points="
  255.941,421.006 255.941,395.7 
  "/>
<polyline clip-path="url(#clip092)" style="stroke:#009af9; stroke-width:0.960417; stroke-opacity:1; fill:none" points="
  257.62,421.006 257.62,391.117 
  "/>
<polyline clip-path="url(#clip092)" style="stroke:#009af9; stroke-width:0.960417; stroke-opacity:1; fill:none" points="
  259.299,421.006 259.299,414.847 
  "/>
<polyline clip-path="url(#clip092)" style="stroke:#009af9; stroke-width:0.960417; stroke-opacity:1; fill:none" points="
  260.978,421.006 260.978,416.306 
  "/>
<polyline clip-path="url(#clip092)" style="stroke:#009af9; stroke-width:0.960417; stroke-opacity:1; fill:none" points="
  262.657,421.006 262.657,419.155 
  "/>
<polyline clip-path="url(#clip092)" style="stroke:#009af9; stroke-width:0.960417; stroke-opacity:1; fill:none" points="
  264.336,421.006 264.336,402.748 
  "/>
<polyline clip-path="url(#clip092)" style="stroke:#009af9; stroke-width:0.960417; stroke-opacity:1; fill:none" points="
  266.015,421.006 266.015,369.644 
  "/>
<polyline clip-path="url(#clip092)" style="stroke:#009af9; stroke-width:0.960417; stroke-opacity:1; fill:none" points="
  267.694,421.006 267.694,419.499 
  "/>
<polyline clip-path="url(#clip092)" style="stroke:#009af9; stroke-width:0.960417; stroke-opacity:1; fill:none" points="
  269.373,421.006 269.373,389.779 
  "/>
<polyline clip-path="url(#clip092)" style="stroke:#009af9; stroke-width:0.960417; stroke-opacity:1; fill:none" points="
  271.053,421.006 271.053,420.893 
  "/>
<polyline clip-path="url(#clip092)" style="stroke:#009af9; stroke-width:0.960417; stroke-opacity:1; fill:none" points="
  272.732,421.006 272.732,416.205 
  "/>
<polyline clip-path="url(#clip092)" style="stroke:#009af9; stroke-width:0.960417; stroke-opacity:1; fill:none" points="
  274.411,421.006 274.411,420.747 
  "/>
<polyline clip-path="url(#clip092)" style="stroke:#009af9; stroke-width:0.960417; stroke-opacity:1; fill:none" points="
  276.09,421.006 276.09,418.387 
  "/>
<polyline clip-path="url(#clip092)" style="stroke:#009af9; stroke-width:0.960417; stroke-opacity:1; fill:none" points="
  277.769,421.006 277.769,405.583 
  "/>
<polyline clip-path="url(#clip092)" style="stroke:#009af9; stroke-width:0.960417; stroke-opacity:1; fill:none" points="
  279.448,421.006 279.448,412.68 
  "/>
<polyline clip-path="url(#clip092)" style="stroke:#009af9; stroke-width:0.960417; stroke-opacity:1; fill:none" points="
  281.127,421.006 281.127,420.988 
  "/>
<polyline clip-path="url(#clip092)" style="stroke:#009af9; stroke-width:0.960417; stroke-opacity:1; fill:none" points="
  282.806,421.006 282.806,418.705 
  "/>
<polyline clip-path="url(#clip092)" style="stroke:#009af9; stroke-width:0.960417; stroke-opacity:1; fill:none" points="
  284.485,421.006 284.485,417.367 
  "/>
<polyline clip-path="url(#clip092)" style="stroke:#009af9; stroke-width:0.960417; stroke-opacity:1; fill:none" points="
  286.164,421.006 286.164,371.306 
  "/>
<polyline clip-path="url(#clip092)" style="stroke:#009af9; stroke-width:0.960417; stroke-opacity:1; fill:none" points="
  287.843,421.006 287.843,347.946 
  "/>
<polyline clip-path="url(#clip092)" style="stroke:#009af9; stroke-width:0.960417; stroke-opacity:1; fill:none" points="
  289.522,421.006 289.522,396.24 
  "/>
<polyline clip-path="url(#clip092)" style="stroke:#009af9; stroke-width:0.960417; stroke-opacity:1; fill:none" points="
  291.201,421.006 291.201,386.92 
  "/>
<polyline clip-path="url(#clip092)" style="stroke:#009af9; stroke-width:0.960417; stroke-opacity:1; fill:none" points="
  292.88,421.006 292.88,419.917 
  "/>
<polyline clip-path="url(#clip092)" style="stroke:#009af9; stroke-width:0.960417; stroke-opacity:1; fill:none" points="
  294.559,421.006 294.559,409.419 
  "/>
<polyline clip-path="url(#clip092)" style="stroke:#009af9; stroke-width:0.960417; stroke-opacity:1; fill:none" points="
  296.239,421.006 296.239,412.13 
  "/>
<polyline clip-path="url(#clip092)" style="stroke:#009af9; stroke-width:0.960417; stroke-opacity:1; fill:none" points="
  297.918,421.006 297.918,413.94 
  "/>
<polyline clip-path="url(#clip092)" style="stroke:#009af9; stroke-width:0.960417; stroke-opacity:1; fill:none" points="
  299.597,421.006 299.597,403.541 
  "/>
<polyline clip-path="url(#clip092)" style="stroke:#009af9; stroke-width:0.960417; stroke-opacity:1; fill:none" points="
  301.276,421.006 301.276,412.898 
  "/>
<polyline clip-path="url(#clip092)" style="stroke:#009af9; stroke-width:0.960417; stroke-opacity:1; fill:none" points="
  302.955,421.006 302.955,409.66 
  "/>
<polyline clip-path="url(#clip092)" style="stroke:#009af9; stroke-width:0.960417; stroke-opacity:1; fill:none" points="
  304.634,421.006 304.634,416.874 
  "/>
<polyline clip-path="url(#clip092)" style="stroke:#009af9; stroke-width:0.960417; stroke-opacity:1; fill:none" points="
  306.313,421.006 306.313,420.741 
  "/>
<polyline clip-path="url(#clip092)" style="stroke:#009af9; stroke-width:0.960417; stroke-opacity:1; fill:none" points="
  307.992,421.006 307.992,419.963 
  "/>
<polyline clip-path="url(#clip092)" style="stroke:#009af9; stroke-width:0.960417; stroke-opacity:1; fill:none" points="
  309.671,421.006 309.671,400.083 
  "/>
<polyline clip-path="url(#clip092)" style="stroke:#009af9; stroke-width:0.960417; stroke-opacity:1; fill:none" points="
  311.35,421.006 311.35,416.312 
  "/>
<polyline clip-path="url(#clip092)" style="stroke:#009af9; stroke-width:0.960417; stroke-opacity:1; fill:none" points="
  313.029,421.006 313.029,420.716 
  "/>
<polyline clip-path="url(#clip092)" style="stroke:#009af9; stroke-width:0.960417; stroke-opacity:1; fill:none" points="
  314.708,421.006 314.708,414.868 
  "/>
<polyline clip-path="url(#clip092)" style="stroke:#009af9; stroke-width:0.960417; stroke-opacity:1; fill:none" points="
  316.387,421.006 316.387,418.914 
  "/>
<polyline clip-path="url(#clip092)" style="stroke:#009af9; stroke-width:0.960417; stroke-opacity:1; fill:none" points="
  318.066,421.006 318.066,416.57 
  "/>
<polyline clip-path="url(#clip092)" style="stroke:#009af9; stroke-width:0.960417; stroke-opacity:1; fill:none" points="
  319.745,421.006 319.745,420.978 
  "/>
<polyline clip-path="url(#clip092)" style="stroke:#009af9; stroke-width:0.960417; stroke-opacity:1; fill:none" points="
  321.425,421.006 321.425,419.482 
  "/>
<polyline clip-path="url(#clip092)" style="stroke:#009af9; stroke-width:0.960417; stroke-opacity:1; fill:none" points="
  323.104,421.006 323.104,406.368 
  "/>
<polyline clip-path="url(#clip092)" style="stroke:#009af9; stroke-width:0.960417; stroke-opacity:1; fill:none" points="
  324.783,421.006 324.783,420.11 
  "/>
<polyline clip-path="url(#clip092)" style="stroke:#009af9; stroke-width:0.960417; stroke-opacity:1; fill:none" points="
  326.462,421.006 326.462,326.976 
  "/>
<polyline clip-path="url(#clip092)" style="stroke:#009af9; stroke-width:0.960417; stroke-opacity:1; fill:none" points="
  328.141,421.006 328.141,412.748 
  "/>
<polyline clip-path="url(#clip092)" style="stroke:#009af9; stroke-width:0.960417; stroke-opacity:1; fill:none" points="
  329.82,421.006 329.82,380.092 
  "/>
<polyline clip-path="url(#clip092)" style="stroke:#009af9; stroke-width:0.960417; stroke-opacity:1; fill:none" points="
  331.499,421.006 331.499,389.944 
  "/>
<polyline clip-path="url(#clip092)" style="stroke:#009af9; stroke-width:0.960417; stroke-opacity:1; fill:none" points="
  333.178,421.006 333.178,324.657 
  "/>
<polyline clip-path="url(#clip092)" style="stroke:#009af9; stroke-width:0.960417; stroke-opacity:1; fill:none" points="
  334.857,421.006 334.857,410.61 
  "/>
<polyline clip-path="url(#clip092)" style="stroke:#009af9; stroke-width:0.960417; stroke-opacity:1; fill:none" points="
  336.536,421.006 336.536,419.49 
  "/>
<polyline clip-path="url(#clip092)" style="stroke:#009af9; stroke-width:0.960417; stroke-opacity:1; fill:none" points="
  338.215,421.006 338.215,399.559 
  "/>
<polyline clip-path="url(#clip092)" style="stroke:#009af9; stroke-width:0.960417; stroke-opacity:1; fill:none" points="
  339.894,421.006 339.894,411.457 
  "/>
<polyline clip-path="url(#clip092)" style="stroke:#009af9; stroke-width:0.960417; stroke-opacity:1; fill:none" points="
  341.573,421.006 341.573,415.919 
  "/>
<polyline clip-path="url(#clip092)" style="stroke:#009af9; stroke-width:0.960417; stroke-opacity:1; fill:none" points="
  343.252,421.006 343.252,420.327 
  "/>
<polyline clip-path="url(#clip092)" style="stroke:#009af9; stroke-width:0.960417; stroke-opacity:1; fill:none" points="
  344.931,421.006 344.931,416.139 
  "/>
<polyline clip-path="url(#clip092)" style="stroke:#009af9; stroke-width:0.960417; stroke-opacity:1; fill:none" points="
  346.61,421.006 346.61,419.801 
  "/>
<polyline clip-path="url(#clip092)" style="stroke:#009af9; stroke-width:0.960417; stroke-opacity:1; fill:none" points="
  348.29,421.006 348.29,391.844 
  "/>
<polyline clip-path="url(#clip092)" style="stroke:#009af9; stroke-width:0.960417; stroke-opacity:1; fill:none" points="
  349.969,421.006 349.969,420.271 
  "/>
<polyline clip-path="url(#clip092)" style="stroke:#009af9; stroke-width:0.960417; stroke-opacity:1; fill:none" points="
  351.648,421.006 351.648,416.782 
  "/>
<polyline clip-path="url(#clip092)" style="stroke:#009af9; stroke-width:0.960417; stroke-opacity:1; fill:none" points="
  353.327,421.006 353.327,416.078 
  "/>
<polyline clip-path="url(#clip092)" style="stroke:#009af9; stroke-width:0.960417; stroke-opacity:1; fill:none" points="
  355.006,421.006 355.006,416.908 
  "/>
<polyline clip-path="url(#clip092)" style="stroke:#009af9; stroke-width:0.960417; stroke-opacity:1; fill:none" points="
  356.685,421.006 356.685,381.152 
  "/>
<polyline clip-path="url(#clip092)" style="stroke:#009af9; stroke-width:0.960417; stroke-opacity:1; fill:none" points="
  358.364,421.006 358.364,349.885 
  "/>
<polyline clip-path="url(#clip092)" style="stroke:#009af9; stroke-width:0.960417; stroke-opacity:1; fill:none" points="
  360.043,421.006 360.043,408.533 
  "/>
<polyline clip-path="url(#clip092)" style="stroke:#009af9; stroke-width:0.960417; stroke-opacity:1; fill:none" points="
  361.722,421.006 361.722,419.564 
  "/>
<polyline clip-path="url(#clip092)" style="stroke:#009af9; stroke-width:0.960417; stroke-opacity:1; fill:none" points="
  363.401,421.006 363.401,412.581 
  "/>
<polyline clip-path="url(#clip092)" style="stroke:#009af9; stroke-width:0.960417; stroke-opacity:1; fill:none" points="
  365.08,421.006 365.08,419.813 
  "/>
<polyline clip-path="url(#clip092)" style="stroke:#009af9; stroke-width:0.960417; stroke-opacity:1; fill:none" points="
  366.759,421.006 366.759,417.291 
  "/>
<polyline clip-path="url(#clip092)" style="stroke:#009af9; stroke-width:0.960417; stroke-opacity:1; fill:none" points="
  368.438,421.006 368.438,387.692 
  "/>
<polyline clip-path="url(#clip092)" style="stroke:#009af9; stroke-width:0.960417; stroke-opacity:1; fill:none" points="
  370.117,421.006 370.117,379.141 
  "/>
<polyline clip-path="url(#clip092)" style="stroke:#009af9; stroke-width:0.960417; stroke-opacity:1; fill:none" points="
  371.796,421.006 371.796,415.675 
  "/>
<polyline clip-path="url(#clip092)" style="stroke:#009af9; stroke-width:0.960417; stroke-opacity:1; fill:none" points="
  373.476,421.006 373.476,411.054 
  "/>
<polyline clip-path="url(#clip092)" style="stroke:#009af9; stroke-width:0.960417; stroke-opacity:1; fill:none" points="
  375.155,421.006 375.155,387.574 
  "/>
<polyline clip-path="url(#clip092)" style="stroke:#009af9; stroke-width:0.960417; stroke-opacity:1; fill:none" points="
  376.834,421.006 376.834,418.099 
  "/>
<polyline clip-path="url(#clip092)" style="stroke:#009af9; stroke-width:0.960417; stroke-opacity:1; fill:none" points="
  378.513,421.006 378.513,420.471 
  "/>
<polyline clip-path="url(#clip092)" style="stroke:#009af9; stroke-width:0.960417; stroke-opacity:1; fill:none" points="
  380.192,421.006 380.192,405.74 
  "/>
<polyline clip-path="url(#clip092)" style="stroke:#009af9; stroke-width:0.960417; stroke-opacity:1; fill:none" points="
  381.871,421.006 381.871,419.712 
  "/>
<polyline clip-path="url(#clip092)" style="stroke:#009af9; stroke-width:0.960417; stroke-opacity:1; fill:none" points="
  383.55,421.006 383.55,401.249 
  "/>
<polyline clip-path="url(#clip092)" style="stroke:#009af9; stroke-width:0.960417; stroke-opacity:1; fill:none" points="
  385.229,421.006 385.229,418.007 
  "/>
<polyline clip-path="url(#clip092)" style="stroke:#009af9; stroke-width:0.960417; stroke-opacity:1; fill:none" points="
  386.908,421.006 386.908,410.228 
  "/>
<polyline clip-path="url(#clip092)" style="stroke:#009af9; stroke-width:0.960417; stroke-opacity:1; fill:none" points="
  388.587,421.006 388.587,415.473 
  "/>
<polyline clip-path="url(#clip092)" style="stroke:#009af9; stroke-width:0.960417; stroke-opacity:1; fill:none" points="
  390.266,421.006 390.266,419.636 
  "/>
<polyline clip-path="url(#clip092)" style="stroke:#009af9; stroke-width:0.960417; stroke-opacity:1; fill:none" points="
  391.945,421.006 391.945,374.471 
  "/>
<polyline clip-path="url(#clip092)" style="stroke:#009af9; stroke-width:0.960417; stroke-opacity:1; fill:none" points="
  393.624,421.006 393.624,419.524 
  "/>
<polyline clip-path="url(#clip092)" style="stroke:#009af9; stroke-width:0.960417; stroke-opacity:1; fill:none" points="
  395.303,421.006 395.303,406.726 
  "/>
<polyline clip-path="url(#clip092)" style="stroke:#009af9; stroke-width:0.960417; stroke-opacity:1; fill:none" points="
  396.982,421.006 396.982,416.787 
  "/>
<polyline clip-path="url(#clip092)" style="stroke:#009af9; stroke-width:0.960417; stroke-opacity:1; fill:none" points="
  398.662,421.006 398.662,396.695 
  "/>
<polyline clip-path="url(#clip092)" style="stroke:#009af9; stroke-width:0.960417; stroke-opacity:1; fill:none" points="
  400.341,421.006 400.341,420.994 
  "/>
<polyline clip-path="url(#clip092)" style="stroke:#009af9; stroke-width:0.960417; stroke-opacity:1; fill:none" points="
  402.02,421.006 402.02,420.852 
  "/>
<polyline clip-path="url(#clip092)" style="stroke:#009af9; stroke-width:0.960417; stroke-opacity:1; fill:none" points="
  403.699,421.006 403.699,410 
  "/>
<polyline clip-path="url(#clip092)" style="stroke:#009af9; stroke-width:0.960417; stroke-opacity:1; fill:none" points="
  405.378,421.006 405.378,417.873 
  "/>
<polyline clip-path="url(#clip092)" style="stroke:#009af9; stroke-width:0.960417; stroke-opacity:1; fill:none" points="
  407.057,421.006 407.057,409.278 
  "/>
<polyline clip-path="url(#clip092)" style="stroke:#009af9; stroke-width:0.960417; stroke-opacity:1; fill:none" points="
  408.736,421.006 408.736,419.41 
  "/>
<polyline clip-path="url(#clip092)" style="stroke:#009af9; stroke-width:0.960417; stroke-opacity:1; fill:none" points="
  410.415,421.006 410.415,416.309 
  "/>
<polyline clip-path="url(#clip092)" style="stroke:#009af9; stroke-width:0.960417; stroke-opacity:1; fill:none" points="
  412.094,421.006 412.094,419.596 
  "/>
<polyline clip-path="url(#clip092)" style="stroke:#009af9; stroke-width:0.960417; stroke-opacity:1; fill:none" points="
  413.773,421.006 413.773,416.094 
  "/>
<polyline clip-path="url(#clip092)" style="stroke:#009af9; stroke-width:0.960417; stroke-opacity:1; fill:none" points="
  415.452,421.006 415.452,412.039 
  "/>
<polyline clip-path="url(#clip092)" style="stroke:#009af9; stroke-width:0.960417; stroke-opacity:1; fill:none" points="
  417.131,421.006 417.131,420.688 
  "/>
<polyline clip-path="url(#clip092)" style="stroke:#009af9; stroke-width:0.960417; stroke-opacity:1; fill:none" points="
  418.81,421.006 418.81,420.65 
  "/>
<polyline clip-path="url(#clip092)" style="stroke:#009af9; stroke-width:0.960417; stroke-opacity:1; fill:none" points="
  420.489,421.006 420.489,402.57 
  "/>
<polyline clip-path="url(#clip092)" style="stroke:#009af9; stroke-width:0.960417; stroke-opacity:1; fill:none" points="
  422.168,421.006 422.168,412.407 
  "/>
<polyline clip-path="url(#clip092)" style="stroke:#009af9; stroke-width:0.960417; stroke-opacity:1; fill:none" points="
  423.848,421.006 423.848,396.654 
  "/>
<polyline clip-path="url(#clip092)" style="stroke:#009af9; stroke-width:0.960417; stroke-opacity:1; fill:none" points="
  425.527,421.006 425.527,421.006 
  "/>
<polyline clip-path="url(#clip092)" style="stroke:#009af9; stroke-width:0.960417; stroke-opacity:1; fill:none" points="
  427.206,421.006 427.206,418.721 
  "/>
<polyline clip-path="url(#clip092)" style="stroke:#009af9; stroke-width:0.960417; stroke-opacity:1; fill:none" points="
  428.885,421.006 428.885,419.647 
  "/>
<polyline clip-path="url(#clip092)" style="stroke:#009af9; stroke-width:0.960417; stroke-opacity:1; fill:none" points="
  430.564,421.006 430.564,368.078 
  "/>
<polyline clip-path="url(#clip092)" style="stroke:#009af9; stroke-width:0.960417; stroke-opacity:1; fill:none" points="
  432.243,421.006 432.243,420.975 
  "/>
<polyline clip-path="url(#clip092)" style="stroke:#009af9; stroke-width:0.960417; stroke-opacity:1; fill:none" points="
  433.922,421.006 433.922,370.02 
  "/>
<polyline clip-path="url(#clip092)" style="stroke:#009af9; stroke-width:0.960417; stroke-opacity:1; fill:none" points="
  435.601,421.006 435.601,420.759 
  "/>
<polyline clip-path="url(#clip092)" style="stroke:#009af9; stroke-width:0.960417; stroke-opacity:1; fill:none" points="
  437.28,421.006 437.28,420.164 
  "/>
<polyline clip-path="url(#clip092)" style="stroke:#009af9; stroke-width:0.960417; stroke-opacity:1; fill:none" points="
  438.959,421.006 438.959,418.729 
  "/>
<polyline clip-path="url(#clip092)" style="stroke:#009af9; stroke-width:0.960417; stroke-opacity:1; fill:none" points="
  440.638,421.006 440.638,419.462 
  "/>
<polyline clip-path="url(#clip092)" style="stroke:#009af9; stroke-width:0.960417; stroke-opacity:1; fill:none" points="
  442.317,421.006 442.317,419.819 
  "/>
<polyline clip-path="url(#clip092)" style="stroke:#009af9; stroke-width:0.960417; stroke-opacity:1; fill:none" points="
  443.996,421.006 443.996,418.73 
  "/>
<polyline clip-path="url(#clip092)" style="stroke:#009af9; stroke-width:0.960417; stroke-opacity:1; fill:none" points="
  445.675,421.006 445.675,412.699 
  "/>
<polyline clip-path="url(#clip092)" style="stroke:#009af9; stroke-width:0.960417; stroke-opacity:1; fill:none" points="
  447.354,421.006 447.354,419.8 
  "/>
<polyline clip-path="url(#clip092)" style="stroke:#009af9; stroke-width:0.960417; stroke-opacity:1; fill:none" points="
  449.033,421.006 449.033,413.611 
  "/>
<polyline clip-path="url(#clip092)" style="stroke:#009af9; stroke-width:0.960417; stroke-opacity:1; fill:none" points="
  450.713,421.006 450.713,420.501 
  "/>
<polyline clip-path="url(#clip092)" style="stroke:#009af9; stroke-width:0.960417; stroke-opacity:1; fill:none" points="
  452.392,421.006 452.392,416.794 
  "/>
<polyline clip-path="url(#clip092)" style="stroke:#009af9; stroke-width:0.960417; stroke-opacity:1; fill:none" points="
  454.071,421.006 454.071,418.555 
  "/>
<polyline clip-path="url(#clip092)" style="stroke:#009af9; stroke-width:0.960417; stroke-opacity:1; fill:none" points="
  455.75,421.006 455.75,418.497 
  "/>
<polyline clip-path="url(#clip092)" style="stroke:#009af9; stroke-width:0.960417; stroke-opacity:1; fill:none" points="
  457.429,421.006 457.429,416.108 
  "/>
<polyline clip-path="url(#clip092)" style="stroke:#009af9; stroke-width:0.960417; stroke-opacity:1; fill:none" points="
  459.108,421.006 459.108,416.8 
  "/>
<polyline clip-path="url(#clip092)" style="stroke:#009af9; stroke-width:0.960417; stroke-opacity:1; fill:none" points="
  460.787,421.006 460.787,404.265 
  "/>
<polyline clip-path="url(#clip092)" style="stroke:#009af9; stroke-width:0.960417; stroke-opacity:1; fill:none" points="
  462.466,421.006 462.466,415.436 
  "/>
<polyline clip-path="url(#clip092)" style="stroke:#009af9; stroke-width:0.960417; stroke-opacity:1; fill:none" points="
  464.145,421.006 464.145,419.651 
  "/>
<polyline clip-path="url(#clip092)" style="stroke:#009af9; stroke-width:0.960417; stroke-opacity:1; fill:none" points="
  465.824,421.006 465.824,396.993 
  "/>
<polyline clip-path="url(#clip092)" style="stroke:#009af9; stroke-width:0.960417; stroke-opacity:1; fill:none" points="
  467.503,421.006 467.503,415.711 
  "/>
<polyline clip-path="url(#clip092)" style="stroke:#009af9; stroke-width:0.960417; stroke-opacity:1; fill:none" points="
  469.182,421.006 469.182,420.772 
  "/>
<polyline clip-path="url(#clip092)" style="stroke:#009af9; stroke-width:0.960417; stroke-opacity:1; fill:none" points="
  470.861,421.006 470.861,419.254 
  "/>
<polyline clip-path="url(#clip092)" style="stroke:#009af9; stroke-width:0.960417; stroke-opacity:1; fill:none" points="
  472.54,421.006 472.54,404.999 
  "/>
<polyline clip-path="url(#clip092)" style="stroke:#009af9; stroke-width:0.960417; stroke-opacity:1; fill:none" points="
  474.219,421.006 474.219,414.668 
  "/>
<polyline clip-path="url(#clip092)" style="stroke:#009af9; stroke-width:0.960417; stroke-opacity:1; fill:none" points="
  475.899,421.006 475.899,407.293 
  "/>
<polyline clip-path="url(#clip092)" style="stroke:#009af9; stroke-width:0.960417; stroke-opacity:1; fill:none" points="
  477.578,421.006 477.578,416.847 
  "/>
<polyline clip-path="url(#clip092)" style="stroke:#009af9; stroke-width:0.960417; stroke-opacity:1; fill:none" points="
  479.257,421.006 479.257,413.989 
  "/>
<polyline clip-path="url(#clip092)" style="stroke:#009af9; stroke-width:0.960417; stroke-opacity:1; fill:none" points="
  480.936,421.006 480.936,420.005 
  "/>
<polyline clip-path="url(#clip092)" style="stroke:#009af9; stroke-width:0.960417; stroke-opacity:1; fill:none" points="
  482.615,421.006 482.615,367.784 
  "/>
<polyline clip-path="url(#clip092)" style="stroke:#009af9; stroke-width:0.960417; stroke-opacity:1; fill:none" points="
  484.294,421.006 484.294,404.948 
  "/>
<polyline clip-path="url(#clip092)" style="stroke:#009af9; stroke-width:0.960417; stroke-opacity:1; fill:none" points="
  485.973,421.006 485.973,406.913 
  "/>
<polyline clip-path="url(#clip092)" style="stroke:#009af9; stroke-width:0.960417; stroke-opacity:1; fill:none" points="
  487.652,421.006 487.652,420.328 
  "/>
<polyline clip-path="url(#clip092)" style="stroke:#009af9; stroke-width:0.960417; stroke-opacity:1; fill:none" points="
  489.331,421.006 489.331,416.352 
  "/>
<polyline clip-path="url(#clip092)" style="stroke:#009af9; stroke-width:0.960417; stroke-opacity:1; fill:none" points="
  491.01,421.006 491.01,397.28 
  "/>
<polyline clip-path="url(#clip092)" style="stroke:#009af9; stroke-width:0.960417; stroke-opacity:1; fill:none" points="
  492.689,421.006 492.689,415.341 
  "/>
<polyline clip-path="url(#clip092)" style="stroke:#009af9; stroke-width:0.960417; stroke-opacity:1; fill:none" points="
  494.368,421.006 494.368,377.022 
  "/>
<polyline clip-path="url(#clip092)" style="stroke:#009af9; stroke-width:0.960417; stroke-opacity:1; fill:none" points="
  496.047,421.006 496.047,416.154 
  "/>
<polyline clip-path="url(#clip092)" style="stroke:#009af9; stroke-width:0.960417; stroke-opacity:1; fill:none" points="
  497.726,421.006 497.726,419.105 
  "/>
<polyline clip-path="url(#clip092)" style="stroke:#009af9; stroke-width:0.960417; stroke-opacity:1; fill:none" points="
  499.405,421.006 499.405,407.758 
  "/>
<polyline clip-path="url(#clip092)" style="stroke:#009af9; stroke-width:0.960417; stroke-opacity:1; fill:none" points="
  501.085,421.006 501.085,383.456 
  "/>
<polyline clip-path="url(#clip092)" style="stroke:#009af9; stroke-width:0.960417; stroke-opacity:1; fill:none" points="
  502.764,421.006 502.764,407.131 
  "/>
<polyline clip-path="url(#clip092)" style="stroke:#009af9; stroke-width:0.960417; stroke-opacity:1; fill:none" points="
  504.443,421.006 504.443,420.968 
  "/>
<polyline clip-path="url(#clip092)" style="stroke:#009af9; stroke-width:0.960417; stroke-opacity:1; fill:none" points="
  506.122,421.006 506.122,416.979 
  "/>
<polyline clip-path="url(#clip092)" style="stroke:#009af9; stroke-width:0.960417; stroke-opacity:1; fill:none" points="
  507.801,421.006 507.801,399.824 
  "/>
<polyline clip-path="url(#clip092)" style="stroke:#009af9; stroke-width:0.960417; stroke-opacity:1; fill:none" points="
  509.48,421.006 509.48,412.834 
  "/>
<polyline clip-path="url(#clip092)" style="stroke:#009af9; stroke-width:0.960417; stroke-opacity:1; fill:none" points="
  511.159,421.006 511.159,394.243 
  "/>
<polyline clip-path="url(#clip092)" style="stroke:#009af9; stroke-width:0.960417; stroke-opacity:1; fill:none" points="
  512.838,421.006 512.838,417.08 
  "/>
<polyline clip-path="url(#clip092)" style="stroke:#009af9; stroke-width:0.960417; stroke-opacity:1; fill:none" points="
  514.517,421.006 514.517,397.136 
  "/>
<polyline clip-path="url(#clip092)" style="stroke:#009af9; stroke-width:0.960417; stroke-opacity:1; fill:none" points="
  516.196,421.006 516.196,383.856 
  "/>
<polyline clip-path="url(#clip092)" style="stroke:#009af9; stroke-width:0.960417; stroke-opacity:1; fill:none" points="
  517.875,421.006 517.875,353.807 
  "/>
<polyline clip-path="url(#clip092)" style="stroke:#009af9; stroke-width:0.960417; stroke-opacity:1; fill:none" points="
  519.554,421.006 519.554,391.204 
  "/>
<polyline clip-path="url(#clip092)" style="stroke:#009af9; stroke-width:0.960417; stroke-opacity:1; fill:none" points="
  521.233,421.006 521.233,413.86 
  "/>
<polyline clip-path="url(#clip092)" style="stroke:#009af9; stroke-width:0.960417; stroke-opacity:1; fill:none" points="
  522.912,421.006 522.912,416.423 
  "/>
<polyline clip-path="url(#clip092)" style="stroke:#009af9; stroke-width:0.960417; stroke-opacity:1; fill:none" points="
  524.591,421.006 524.591,387.507 
  "/>
<polyline clip-path="url(#clip092)" style="stroke:#009af9; stroke-width:0.960417; stroke-opacity:1; fill:none" points="
  526.27,421.006 526.27,404.832 
  "/>
<polyline clip-path="url(#clip092)" style="stroke:#009af9; stroke-width:0.960417; stroke-opacity:1; fill:none" points="
  527.95,421.006 527.95,420.473 
  "/>
<polyline clip-path="url(#clip092)" style="stroke:#009af9; stroke-width:0.960417; stroke-opacity:1; fill:none" points="
  529.629,421.006 529.629,415.24 
  "/>
<polyline clip-path="url(#clip092)" style="stroke:#009af9; stroke-width:0.960417; stroke-opacity:1; fill:none" points="
  531.308,421.006 531.308,325.715 
  "/>
<polyline clip-path="url(#clip092)" style="stroke:#009af9; stroke-width:0.960417; stroke-opacity:1; fill:none" points="
  532.987,421.006 532.987,42.052 
  "/>
<polyline clip-path="url(#clip092)" style="stroke:#009af9; stroke-width:0.960417; stroke-opacity:1; fill:none" points="
  534.666,421.006 534.666,420.178 
  "/>
<polyline clip-path="url(#clip092)" style="stroke:#009af9; stroke-width:0.960417; stroke-opacity:1; fill:none" points="
  536.345,421.006 536.345,411.5 
  "/>
<polyline clip-path="url(#clip092)" style="stroke:#009af9; stroke-width:0.960417; stroke-opacity:1; fill:none" points="
  538.024,421.006 538.024,390.702 
  "/>
<polyline clip-path="url(#clip092)" style="stroke:#009af9; stroke-width:0.960417; stroke-opacity:1; fill:none" points="
  539.703,421.006 539.703,324.337 
  "/>
<polyline clip-path="url(#clip092)" style="stroke:#009af9; stroke-width:0.960417; stroke-opacity:1; fill:none" points="
  541.382,421.006 541.382,386.266 
  "/>
<polyline clip-path="url(#clip092)" style="stroke:#009af9; stroke-width:0.960417; stroke-opacity:1; fill:none" points="
  543.061,421.006 543.061,416.479 
  "/>
<polyline clip-path="url(#clip092)" style="stroke:#009af9; stroke-width:0.960417; stroke-opacity:1; fill:none" points="
  544.74,421.006 544.74,406.537 
  "/>
<polyline clip-path="url(#clip092)" style="stroke:#009af9; stroke-width:0.960417; stroke-opacity:1; fill:none" points="
  546.419,421.006 546.419,421 
  "/>
<polyline clip-path="url(#clip092)" style="stroke:#009af9; stroke-width:0.960417; stroke-opacity:1; fill:none" points="
  548.098,421.006 548.098,385.145 
  "/>
<polyline clip-path="url(#clip092)" style="stroke:#009af9; stroke-width:0.960417; stroke-opacity:1; fill:none" points="
  549.777,421.006 549.777,398.041 
  "/>
<polyline clip-path="url(#clip092)" style="stroke:#009af9; stroke-width:0.960417; stroke-opacity:1; fill:none" points="
  551.456,421.006 551.456,415.012 
  "/>
<polyline clip-path="url(#clip092)" style="stroke:#009af9; stroke-width:0.960417; stroke-opacity:1; fill:none" points="
  553.136,421.006 553.136,413.603 
  "/>
<polyline clip-path="url(#clip092)" style="stroke:#009af9; stroke-width:0.960417; stroke-opacity:1; fill:none" points="
  554.815,421.006 554.815,415.19 
  "/>
<polyline clip-path="url(#clip092)" style="stroke:#009af9; stroke-width:0.960417; stroke-opacity:1; fill:none" points="
  556.494,421.006 556.494,412.622 
  "/>
<polyline clip-path="url(#clip092)" style="stroke:#009af9; stroke-width:0.960417; stroke-opacity:1; fill:none" points="
  558.173,421.006 558.173,420.241 
  "/>
<polyline clip-path="url(#clip092)" style="stroke:#009af9; stroke-width:0.960417; stroke-opacity:1; fill:none" points="
  559.852,421.006 559.852,410.503 
  "/>
<polyline clip-path="url(#clip092)" style="stroke:#009af9; stroke-width:0.960417; stroke-opacity:1; fill:none" points="
  561.531,421.006 561.531,384.15 
  "/>
<polyline clip-path="url(#clip092)" style="stroke:#009af9; stroke-width:0.960417; stroke-opacity:1; fill:none" points="
  563.21,421.006 563.21,420.967 
  "/>
<polyline clip-path="url(#clip092)" style="stroke:#009af9; stroke-width:0.960417; stroke-opacity:1; fill:none" points="
  564.889,421.006 564.889,410.14 
  "/>
<polyline clip-path="url(#clip092)" style="stroke:#009af9; stroke-width:0.960417; stroke-opacity:1; fill:none" points="
  566.568,421.006 566.568,392.349 
  "/>
<polyline clip-path="url(#clip092)" style="stroke:#009af9; stroke-width:0.960417; stroke-opacity:1; fill:none" points="
  568.247,421.006 568.247,303.418 
  "/>
<polyline clip-path="url(#clip092)" style="stroke:#009af9; stroke-width:0.960417; stroke-opacity:1; fill:none" points="
  569.926,421.006 569.926,417.348 
  "/>
<polyline clip-path="url(#clip092)" style="stroke:#009af9; stroke-width:0.960417; stroke-opacity:1; fill:none" points="
  571.605,421.006 571.605,351.098 
  "/>
<polyline clip-path="url(#clip092)" style="stroke:#009af9; stroke-width:0.960417; stroke-opacity:1; fill:none" points="
  573.284,421.006 573.284,407.793 
  "/>
<polyline clip-path="url(#clip092)" style="stroke:#009af9; stroke-width:0.960417; stroke-opacity:1; fill:none" points="
  574.963,421.006 574.963,372.59 
  "/>
<polyline clip-path="url(#clip092)" style="stroke:#009af9; stroke-width:0.960417; stroke-opacity:1; fill:none" points="
  576.642,421.006 576.642,415.594 
  "/>
<polyline clip-path="url(#clip092)" style="stroke:#009af9; stroke-width:0.960417; stroke-opacity:1; fill:none" points="
  578.322,421.006 578.322,420.965 
  "/>
<polyline clip-path="url(#clip092)" style="stroke:#009af9; stroke-width:0.960417; stroke-opacity:1; fill:none" points="
  580.001,421.006 580.001,419.702 
  "/>
<polyline clip-path="url(#clip092)" style="stroke:#009af9; stroke-width:0.960417; stroke-opacity:1; fill:none" points="
  581.68,421.006 581.68,420.771 
  "/>
<polyline clip-path="url(#clip092)" style="stroke:#009af9; stroke-width:0.960417; stroke-opacity:1; fill:none" points="
  583.359,421.006 583.359,393.132 
  "/>
<polyline clip-path="url(#clip092)" style="stroke:#009af9; stroke-width:0.960417; stroke-opacity:1; fill:none" points="
  585.038,421.006 585.038,328.64 
  "/>
<polyline clip-path="url(#clip092)" style="stroke:#009af9; stroke-width:0.960417; stroke-opacity:1; fill:none" points="
  586.717,421.006 586.717,418.568 
  "/>
<polyline clip-path="url(#clip092)" style="stroke:#009af9; stroke-width:0.960417; stroke-opacity:1; fill:none" points="
  588.396,421.006 588.396,380.807 
  "/>
<polyline clip-path="url(#clip092)" style="stroke:#009af9; stroke-width:0.960417; stroke-opacity:1; fill:none" points="
  590.075,421.006 590.075,403.838 
  "/>
<polyline clip-path="url(#clip092)" style="stroke:#009af9; stroke-width:0.960417; stroke-opacity:1; fill:none" points="
  591.754,421.006 591.754,420.997 
  "/>
<polyline clip-path="url(#clip092)" style="stroke:#009af9; stroke-width:0.960417; stroke-opacity:1; fill:none" points="
  593.433,421.006 593.433,409.905 
  "/>
<polyline clip-path="url(#clip092)" style="stroke:#009af9; stroke-width:0.960417; stroke-opacity:1; fill:none" points="
  595.112,421.006 595.112,420.903 
  "/>
<polyline clip-path="url(#clip092)" style="stroke:#009af9; stroke-width:0.960417; stroke-opacity:1; fill:none" points="
  596.791,421.006 596.791,325.825 
  "/>
<polyline clip-path="url(#clip092)" style="stroke:#009af9; stroke-width:0.960417; stroke-opacity:1; fill:none" points="
  598.47,421.006 598.47,407.967 
  "/>
<polyline clip-path="url(#clip092)" style="stroke:#009af9; stroke-width:0.960417; stroke-opacity:1; fill:none" points="
  600.149,421.006 600.149,411.481 
  "/>
<polyline clip-path="url(#clip092)" style="stroke:#009af9; stroke-width:0.960417; stroke-opacity:1; fill:none" points="
  601.828,421.006 601.828,387.427 
  "/>
<polyline clip-path="url(#clip092)" style="stroke:#009af9; stroke-width:0.960417; stroke-opacity:1; fill:none" points="
  603.508,421.006 603.508,420.266 
  "/>
<polyline clip-path="url(#clip092)" style="stroke:#009af9; stroke-width:0.960417; stroke-opacity:1; fill:none" points="
  605.187,421.006 605.187,378.896 
  "/>
<polyline clip-path="url(#clip092)" style="stroke:#009af9; stroke-width:0.960417; stroke-opacity:1; fill:none" points="
  606.866,421.006 606.866,418.11 
  "/>
<polyline clip-path="url(#clip092)" style="stroke:#009af9; stroke-width:0.960417; stroke-opacity:1; fill:none" points="
  608.545,421.006 608.545,420.649 
  "/>
<polyline clip-path="url(#clip092)" style="stroke:#009af9; stroke-width:0.960417; stroke-opacity:1; fill:none" points="
  610.224,421.006 610.224,359.811 
  "/>
<polyline clip-path="url(#clip092)" style="stroke:#009af9; stroke-width:0.960417; stroke-opacity:1; fill:none" points="
  611.903,421.006 611.903,383.032 
  "/>
<polyline clip-path="url(#clip092)" style="stroke:#009af9; stroke-width:0.960417; stroke-opacity:1; fill:none" points="
  613.582,421.006 613.582,406.09 
  "/>
<polyline clip-path="url(#clip092)" style="stroke:#009af9; stroke-width:0.960417; stroke-opacity:1; fill:none" points="
  615.261,421.006 615.261,379.939 
  "/>
<polyline clip-path="url(#clip092)" style="stroke:#009af9; stroke-width:0.960417; stroke-opacity:1; fill:none" points="
  616.94,421.006 616.94,418.187 
  "/>
<polyline clip-path="url(#clip092)" style="stroke:#e26f46; stroke-width:0.960417; stroke-opacity:1; fill:none" stroke-dasharray="8, 5" points="
  -548.13,311.488 1224.56,311.488 
  "/>
<path clip-path="url(#clip090)" d="M 0 0 M114.476 271.22 Q115.282 271.392 115.731 271.937 Q116.187 272.481 116.187 273.282 Q116.187 274.51 115.343 275.183 Q114.498 275.855 112.943 275.855 Q112.421 275.855 111.866 275.749 Q111.316 275.649 110.727 275.444 L110.727 274.36 Q111.193 274.632 111.749 274.771 Q112.304 274.91 112.91 274.91 Q113.965 274.91 114.515 274.493 Q115.07 274.077 115.07 273.282 Q115.07 272.548 114.554 272.137 Q114.043 271.72 113.126 271.72 L112.16 271.72 L112.16 270.797 L113.171 270.797 Q113.998 270.797 114.437 270.469 Q114.876 270.136 114.876 269.513 Q114.876 268.874 114.421 268.535 Q113.971 268.191 113.126 268.191 Q112.665 268.191 112.138 268.291 Q111.61 268.391 110.977 268.602 L110.977 267.602 Q111.616 267.424 112.171 267.335 Q112.732 267.246 113.226 267.246 Q114.504 267.246 115.248 267.829 Q115.993 268.407 115.993 269.397 Q115.993 270.086 115.598 270.564 Q115.204 271.036 114.476 271.22 Z" fill="#000000" fill-rule="evenodd" fill-opacity="1" /><path clip-path="url(#clip090)" d="M 0 0 M117.414 267.396 L121.819 267.396 L121.819 268.341 L118.442 268.341 L118.442 270.375 Q118.686 270.292 118.931 270.253 Q119.175 270.208 119.42 270.208 Q120.808 270.208 121.619 270.97 Q122.43 271.731 122.43 273.032 Q122.43 274.371 121.597 275.116 Q120.764 275.855 119.247 275.855 Q118.725 275.855 118.181 275.766 Q117.642 275.677 117.065 275.499 L117.065 274.371 Q117.564 274.643 118.098 274.777 Q118.631 274.91 119.225 274.91 Q120.186 274.91 120.747 274.404 Q121.308 273.899 121.308 273.032 Q121.308 272.165 120.747 271.659 Q120.186 271.153 119.225 271.153 Q118.775 271.153 118.325 271.253 Q117.881 271.353 117.414 271.564 L117.414 267.396 Z" fill="#000000" fill-rule="evenodd" fill-opacity="1" /><path clip-path="url(#clip090)" d="M 0 0 M232.062 265.24 L233.895 265.24 L233.895 258.909 L231.901 259.309 L231.901 258.287 L233.883 257.887 L235.005 257.887 L235.005 265.24 L236.838 265.24 L236.838 266.185 L232.062 266.185 L232.062 265.24 Z" fill="#000000" fill-rule="evenodd" fill-opacity="1" /><path clip-path="url(#clip090)" d="M 0 0 M240.454 258.626 Q239.588 258.626 239.149 259.482 Q238.716 260.332 238.716 262.044 Q238.716 263.75 239.149 264.606 Q239.588 265.457 240.454 265.457 Q241.326 265.457 241.76 264.606 Q242.199 263.75 242.199 262.044 Q242.199 260.332 241.76 259.482 Q241.326 258.626 240.454 258.626 M240.454 257.737 Q241.849 257.737 242.582 258.843 Q243.321 259.943 243.321 262.044 Q243.321 264.139 242.582 265.245 Q241.849 266.346 240.454 266.346 Q239.06 266.346 238.322 265.245 Q237.588 264.139 237.588 262.044 Q237.588 259.943 238.322 258.843 Q239.06 257.737 240.454 257.737 Z" fill="#000000" fill-rule="evenodd" fill-opacity="1" /><path clip-path="url(#clip090)" d="M 0 0 M244.57 266.012 L244.57 264.99 Q244.992 265.19 245.426 265.295 Q245.859 265.401 246.276 265.401 Q247.386 265.401 247.97 264.656 Q248.558 263.906 248.642 262.383 Q248.32 262.861 247.825 263.117 Q247.331 263.372 246.731 263.372 Q245.487 263.372 244.759 262.622 Q244.037 261.866 244.037 260.56 Q244.037 259.282 244.792 258.509 Q245.548 257.737 246.803 257.737 Q248.242 257.737 248.997 258.843 Q249.758 259.943 249.758 262.044 Q249.758 264.006 248.825 265.179 Q247.897 266.346 246.326 266.346 Q245.903 266.346 245.47 266.262 Q245.037 266.179 244.57 266.012 M246.803 262.494 Q247.559 262.494 247.997 261.977 Q248.442 261.46 248.442 260.56 Q248.442 259.665 247.997 259.148 Q247.559 258.626 246.803 258.626 Q246.048 258.626 245.603 259.148 Q245.165 259.665 245.165 260.56 Q245.165 261.46 245.603 261.977 Q246.048 262.494 246.803 262.494 Z" fill="#000000" fill-rule="evenodd" fill-opacity="1" /><path clip-path="url(#clip090)" d="M 0 0 M525.31 34.3044 L529.226 34.3044 L529.226 35.2492 L523.961 35.2492 L523.961 34.3044 Q524.599 33.643 525.699 32.5314 Q526.805 31.4142 527.088 31.0919 Q527.627 30.4861 527.838 30.0692 Q528.054 29.6468 528.054 29.2411 Q528.054 28.5797 527.588 28.1628 Q527.127 27.746 526.382 27.746 Q525.855 27.746 525.266 27.9294 Q524.683 28.1128 524.016 28.4852 L524.016 27.3514 Q524.694 27.079 525.283 26.9401 Q525.871 26.8011 526.36 26.8011 Q527.649 26.8011 528.415 27.4459 Q529.182 28.0906 529.182 29.1688 Q529.182 29.6802 528.988 30.1415 Q528.799 30.5972 528.293 31.2197 Q528.154 31.3809 527.41 32.1534 Q526.666 32.9204 525.31 34.3044 Z" fill="#000000" fill-rule="evenodd" fill-opacity="1" /><path clip-path="url(#clip090)" d="M 0 0 M532.842 31.3086 Q532.042 31.3086 531.581 31.7366 Q531.126 32.1646 531.126 32.9149 Q531.126 33.6652 531.581 34.0932 Q532.042 34.5211 532.842 34.5211 Q533.642 34.5211 534.103 34.0932 Q534.564 33.6596 534.564 32.9149 Q534.564 32.1646 534.103 31.7366 Q533.648 31.3086 532.842 31.3086 M531.72 30.8306 Q530.998 30.6528 530.593 30.1581 Q530.193 29.6635 530.193 28.9521 Q530.193 27.9572 530.898 27.3792 Q531.609 26.8011 532.842 26.8011 Q534.081 26.8011 534.786 27.3792 Q535.492 27.9572 535.492 28.9521 Q535.492 29.6635 535.086 30.1581 Q534.686 30.6528 533.97 30.8306 Q534.781 31.0196 535.231 31.5699 Q535.686 32.1201 535.686 32.9149 Q535.686 34.1209 534.947 34.7657 Q534.214 35.4104 532.842 35.4104 Q531.47 35.4104 530.732 34.7657 Q529.998 34.1209 529.998 32.9149 Q529.998 32.1201 530.454 31.5699 Q530.909 31.0196 531.72 30.8306 M531.309 29.0577 Q531.309 29.7024 531.709 30.0637 Q532.115 30.4249 532.842 30.4249 Q533.564 30.4249 533.97 30.0637 Q534.381 29.7024 534.381 29.0577 Q534.381 28.4129 533.97 28.0517 Q533.564 27.6904 532.842 27.6904 Q532.115 27.6904 531.709 28.0517 Q531.309 28.4129 531.309 29.0577 Z" fill="#000000" fill-rule="evenodd" fill-opacity="1" /><path clip-path="url(#clip090)" d="M 0 0 M540.302 30.7751 Q541.107 30.9474 541.557 31.492 Q542.013 32.0367 542.013 32.8371 Q542.013 34.0654 541.169 34.7379 Q540.324 35.4104 538.769 35.4104 Q538.247 35.4104 537.691 35.3048 Q537.142 35.2047 536.553 34.9991 L536.553 33.9153 Q537.019 34.1876 537.575 34.3266 Q538.13 34.4655 538.736 34.4655 Q539.791 34.4655 540.341 34.0487 Q540.896 33.6318 540.896 32.8371 Q540.896 32.1034 540.38 31.6921 Q539.869 31.2753 538.952 31.2753 L537.986 31.2753 L537.986 30.3527 L538.997 30.3527 Q539.824 30.3527 540.263 30.0247 Q540.702 29.6913 540.702 29.0688 Q540.702 28.4296 540.246 28.0906 Q539.797 27.746 538.952 27.746 Q538.491 27.746 537.964 27.846 Q537.436 27.9461 536.803 28.1573 L536.803 27.1568 Q537.441 26.979 537.997 26.8901 Q538.558 26.8011 539.052 26.8011 Q540.33 26.8011 541.074 27.3847 Q541.818 27.9628 541.818 28.9521 Q541.818 29.6412 541.424 30.1192 Q541.03 30.5917 540.302 30.7751 Z" fill="#000000" fill-rule="evenodd" fill-opacity="1" /><path clip-path="url(#clip090)" d="M 0 0 M562.726 292.141 Q563.531 292.313 563.981 292.858 Q564.437 293.402 564.437 294.203 Q564.437 295.431 563.592 296.104 Q562.748 296.776 561.193 296.776 Q560.671 296.776 560.115 296.67 Q559.565 296.57 558.977 296.365 L558.977 295.281 Q559.443 295.553 559.999 295.692 Q560.554 295.831 561.16 295.831 Q562.215 295.831 562.765 295.414 Q563.32 294.998 563.32 294.203 Q563.32 293.469 562.804 293.058 Q562.293 292.641 561.376 292.641 L560.41 292.641 L560.41 291.718 L561.421 291.718 Q562.248 291.718 562.687 291.39 Q563.126 291.057 563.126 290.434 Q563.126 289.795 562.67 289.456 Q562.221 289.112 561.376 289.112 Q560.915 289.112 560.388 289.212 Q559.86 289.312 559.227 289.523 L559.227 288.523 Q559.865 288.345 560.421 288.256 Q560.982 288.167 561.476 288.167 Q562.754 288.167 563.498 288.75 Q564.242 289.328 564.242 290.318 Q564.242 291.007 563.848 291.485 Q563.454 291.957 562.726 292.141 Z" fill="#000000" fill-rule="evenodd" fill-opacity="1" /><path clip-path="url(#clip090)" d="M 0 0 M568.053 289.056 Q567.186 289.056 566.747 289.912 Q566.314 290.762 566.314 292.474 Q566.314 294.18 566.747 295.036 Q567.186 295.887 568.053 295.887 Q568.925 295.887 569.358 295.036 Q569.797 294.18 569.797 292.474 Q569.797 290.762 569.358 289.912 Q568.925 289.056 568.053 289.056 M568.053 288.167 Q569.447 288.167 570.18 289.273 Q570.919 290.373 570.919 292.474 Q570.919 294.57 570.18 295.676 Q569.447 296.776 568.053 296.776 Q566.659 296.776 565.92 295.676 Q565.187 294.57 565.187 292.474 Q565.187 290.373 565.92 289.273 Q566.659 288.167 568.053 288.167 Z" fill="#000000" fill-rule="evenodd" fill-opacity="1" /><path clip-path="url(#clip090)" d="M 0 0 M575.218 289.295 L572.385 293.725 L575.218 293.725 L575.218 289.295 M574.924 288.317 L576.334 288.317 L576.334 293.725 L577.518 293.725 L577.518 294.658 L576.334 294.658 L576.334 296.615 L575.218 296.615 L575.218 294.658 L571.474 294.658 L571.474 293.575 L574.924 288.317 Z" fill="#000000" fill-rule="evenodd" fill-opacity="1" /></svg>
