<?xml version="1.0" encoding="utf-8"?>
<svg xmlns="http://www.w3.org/2000/svg" xmlns:xlink="http://www.w3.org/1999/xlink" width="161.25" height="115.25" viewBox="0 0 645 461">
<defs>
  <clipPath id="clip700">
    <rect x="0" y="0" width="645" height="461"/>
  </clipPath>
</defs>
<path clip-path="url(#clip700)" d="
M0 461 L645 461 L645 0 L0 0  Z
  " fill="#ffffff" fill-rule="evenodd" fill-opacity="1"/>
<defs>
  <clipPath id="clip701">
    <rect x="129" y="0" width="453" height="453"/>
  </clipPath>
</defs>
<path clip-path="url(#clip700)" d="
M34.0907 432.375 L633.664 432.375 L633.664 30.6834 L34.0907 30.6834  Z
  " fill="#ffffff" fill-rule="evenodd" fill-opacity="1"/>
<defs>
  <clipPath id="clip702">
    <rect x="34" y="30" width="601" height="403"/>
  </clipPath>
</defs>
<polyline clip-path="url(#clip702)" style="stroke:#000000; stroke-width:0.480208; stroke-opacity:0.1; fill:none" points="
  103.869,432.375 103.869,30.6834 
  "/>
<polyline clip-path="url(#clip702)" style="stroke:#000000; stroke-width:0.480208; stroke-opacity:0.1; fill:none" points="
  195.873,432.375 195.873,30.6834 
  "/>
<polyline clip-path="url(#clip702)" style="stroke:#000000; stroke-width:0.480208; stroke-opacity:0.1; fill:none" points="
  287.876,432.375 287.876,30.6834 
  "/>
<polyline clip-path="url(#clip702)" style="stroke:#000000; stroke-width:0.480208; stroke-opacity:0.1; fill:none" points="
  379.879,432.375 379.879,30.6834 
  "/>
<polyline clip-path="url(#clip702)" style="stroke:#000000; stroke-width:0.480208; stroke-opacity:0.1; fill:none" points="
  471.882,432.375 471.882,30.6834 
  "/>
<polyline clip-path="url(#clip702)" style="stroke:#000000; stroke-width:0.480208; stroke-opacity:0.1; fill:none" points="
  563.885,432.375 563.885,30.6834 
  "/>
<polyline clip-path="url(#clip700)" style="stroke:#000000; stroke-width:0.960417; stroke-opacity:1; fill:none" points="
  34.0907,432.375 633.664,432.375 
  "/>
<polyline clip-path="url(#clip700)" style="stroke:#000000; stroke-width:0.960417; stroke-opacity:1; fill:none" points="
  103.869,432.375 103.869,427.554 
  "/>
<polyline clip-path="url(#clip700)" style="stroke:#000000; stroke-width:0.960417; stroke-opacity:1; fill:none" points="
  195.873,432.375 195.873,427.554 
  "/>
<polyline clip-path="url(#clip700)" style="stroke:#000000; stroke-width:0.960417; stroke-opacity:1; fill:none" points="
  287.876,432.375 287.876,427.554 
  "/>
<polyline clip-path="url(#clip700)" style="stroke:#000000; stroke-width:0.960417; stroke-opacity:1; fill:none" points="
  379.879,432.375 379.879,427.554 
  "/>
<polyline clip-path="url(#clip700)" style="stroke:#000000; stroke-width:0.960417; stroke-opacity:1; fill:none" points="
  471.882,432.375 471.882,427.554 
  "/>
<polyline clip-path="url(#clip700)" style="stroke:#000000; stroke-width:0.960417; stroke-opacity:1; fill:none" points="
  563.885,432.375 563.885,427.554 
  "/>
<path clip-path="url(#clip700)" d="M 0 0 M78.3438 440.303 L76.8219 444.433 L79.8713 444.433 L78.3438 440.303 M77.7106 439.197 L78.9826 439.197 L82.1431 447.495 L80.9766 447.495 L80.2212 445.367 L76.483 445.367 L75.7276 447.495 L74.5445 447.495 L77.7106 439.197 Z" fill="#000000" fill-rule="evenodd" fill-opacity="1" /><path clip-path="url(#clip700)" d="M 0 0 M87.1088 442.215 L87.1088 438.847 L88.1308 438.847 L88.1308 447.495 L87.1088 447.495 L87.1088 446.562 Q86.7866 447.117 86.2923 447.39 Q85.8035 447.657 85.1147 447.657 Q83.9872 447.657 83.2762 446.756 Q82.5708 445.856 82.5708 444.389 Q82.5708 442.921 83.2762 442.021 Q83.9872 441.12 85.1147 441.12 Q85.8035 441.12 86.2923 441.393 Q86.7866 441.66 87.1088 442.215 M83.6261 444.389 Q83.6261 445.517 84.0871 446.162 Q84.5537 446.801 85.3647 446.801 Q86.1756 446.801 86.6422 446.162 Q87.1088 445.517 87.1088 444.389 Q87.1088 443.26 86.6422 442.621 Q86.1756 441.976 85.3647 441.976 Q84.5537 441.976 84.0871 442.621 Q83.6261 443.26 83.6261 444.389 Z" fill="#000000" fill-rule="evenodd" fill-opacity="1" /><path clip-path="url(#clip700)" d="M 0 0 M94.524 444.127 L94.524 444.628 L89.8249 444.628 Q89.8916 445.684 90.4582 446.239 Q91.0303 446.79 92.0467 446.79 Q92.6355 446.79 93.1854 446.645 Q93.7409 446.501 94.2852 446.212 L94.2852 447.179 Q93.7353 447.412 93.1576 447.534 Q92.58 447.657 91.9856 447.657 Q90.497 447.657 89.625 446.79 Q88.7585 445.923 88.7585 444.444 Q88.7585 442.916 89.5805 442.021 Q90.4082 441.12 91.8079 441.12 Q93.0632 441.12 93.7908 441.932 Q94.524 442.738 94.524 444.127 M93.502 443.827 Q93.4909 442.988 93.0299 442.488 Q92.5744 441.987 91.819 441.987 Q90.9636 441.987 90.447 442.471 Q89.936 442.955 89.8583 443.833 L93.502 443.827 Z" fill="#000000" fill-rule="evenodd" fill-opacity="1" /><path clip-path="url(#clip700)" d="M 0 0 M95.5961 438.847 L96.6181 438.847 L96.6181 447.495 L95.5961 447.495 L95.5961 438.847 Z" fill="#000000" fill-rule="evenodd" fill-opacity="1" /><path clip-path="url(#clip700)" d="M 0 0 M97.6901 441.271 L98.7121 441.271 L98.7121 447.495 L97.6901 447.495 L97.6901 441.271 M97.6901 438.847 L98.7121 438.847 L98.7121 440.142 L97.6901 440.142 L97.6901 438.847 Z" fill="#000000" fill-rule="evenodd" fill-opacity="1" /><path clip-path="url(#clip700)" d="M 0 0 M105.105 444.127 L105.105 444.628 L100.406 444.628 Q100.473 445.684 101.039 446.239 Q101.612 446.79 102.628 446.79 Q103.217 446.79 103.767 446.645 Q104.322 446.501 104.867 446.212 L104.867 447.179 Q104.317 447.412 103.739 447.534 Q103.161 447.657 102.567 447.657 Q101.078 447.657 100.206 446.79 Q99.3398 445.923 99.3398 444.444 Q99.3398 442.916 100.162 442.021 Q100.989 441.12 102.389 441.12 Q103.645 441.12 104.372 441.932 Q105.105 442.738 105.105 444.127 M104.083 443.827 Q104.072 442.988 103.611 442.488 Q103.156 441.987 102.4 441.987 Q101.545 441.987 101.028 442.471 Q100.517 442.955 100.44 443.833 L104.083 443.827 Z" fill="#000000" fill-rule="evenodd" fill-opacity="1" /><path clip-path="url(#clip700)" d="M 0 0 M105.661 443.922 L108.655 443.922 L108.655 444.833 L105.661 444.833 L105.661 443.922 Z" fill="#000000" fill-rule="evenodd" fill-opacity="1" /><path clip-path="url(#clip700)" d="M 0 0 M114.57 442.465 Q114.953 441.776 115.487 441.448 Q116.02 441.12 116.742 441.12 Q117.714 441.12 118.242 441.804 Q118.769 442.482 118.769 443.738 L118.769 447.495 L117.742 447.495 L117.742 443.772 Q117.742 442.877 117.425 442.443 Q117.109 442.01 116.459 442.01 Q115.664 442.01 115.203 442.538 Q114.742 443.066 114.742 443.977 L114.742 447.495 L113.715 447.495 L113.715 443.772 Q113.715 442.871 113.398 442.443 Q113.082 442.01 112.421 442.01 Q111.637 442.01 111.176 442.543 Q110.715 443.071 110.715 443.977 L110.715 447.495 L109.688 447.495 L109.688 441.271 L110.715 441.271 L110.715 442.238 Q111.065 441.665 111.554 441.393 Q112.043 441.12 112.715 441.12 Q113.393 441.12 113.865 441.465 Q114.342 441.81 114.57 442.465 Z" fill="#000000" fill-rule="evenodd" fill-opacity="1" /><path clip-path="url(#clip700)" d="M 0 0 M122.669 444.366 Q121.43 444.366 120.952 444.65 Q120.475 444.933 120.475 445.617 Q120.475 446.162 120.83 446.484 Q121.191 446.801 121.808 446.801 Q122.658 446.801 123.169 446.2 Q123.685 445.595 123.685 444.594 L123.685 444.366 L122.669 444.366 M124.707 443.944 L124.707 447.495 L123.685 447.495 L123.685 446.551 Q123.335 447.117 122.813 447.39 Q122.291 447.657 121.536 447.657 Q120.58 447.657 120.014 447.123 Q119.453 446.584 119.453 445.684 Q119.453 444.633 120.152 444.1 Q120.858 443.566 122.252 443.566 L123.685 443.566 L123.685 443.466 Q123.685 442.76 123.219 442.377 Q122.758 441.987 121.919 441.987 Q121.386 441.987 120.88 442.115 Q120.375 442.243 119.908 442.499 L119.908 441.554 Q120.469 441.337 120.997 441.232 Q121.524 441.12 122.024 441.12 Q123.374 441.12 124.041 441.821 Q124.707 442.521 124.707 443.944 Z" fill="#000000" fill-rule="evenodd" fill-opacity="1" /><path clip-path="url(#clip700)" d="M 0 0 M125.779 438.847 L126.801 438.847 L126.801 447.495 L125.779 447.495 L125.779 438.847 Z" fill="#000000" fill-rule="evenodd" fill-opacity="1" /><path clip-path="url(#clip700)" d="M 0 0 M133.194 444.127 L133.194 444.628 L128.495 444.628 Q128.562 445.684 129.129 446.239 Q129.701 446.79 130.717 446.79 Q131.306 446.79 131.856 446.645 Q132.411 446.501 132.956 446.212 L132.956 447.179 Q132.406 447.412 131.828 447.534 Q131.25 447.657 130.656 447.657 Q129.167 447.657 128.295 446.79 Q127.429 445.923 127.429 444.444 Q127.429 442.916 128.251 442.021 Q129.079 441.12 130.478 441.12 Q131.734 441.12 132.461 441.932 Q133.194 442.738 133.194 444.127 M132.172 443.827 Q132.161 442.988 131.7 442.488 Q131.245 441.987 130.489 441.987 Q129.634 441.987 129.117 442.471 Q128.606 442.955 128.529 443.833 L132.172 443.827 Z" fill="#000000" fill-rule="evenodd" fill-opacity="1" /><path clip-path="url(#clip700)" d="M 0 0 M165.04 440.303 L163.518 444.433 L166.567 444.433 L165.04 440.303 M164.406 439.197 L165.678 439.197 L168.839 447.495 L167.672 447.495 L166.917 445.367 L163.179 445.367 L162.423 447.495 L161.24 447.495 L164.406 439.197 Z" fill="#000000" fill-rule="evenodd" fill-opacity="1" /><path clip-path="url(#clip700)" d="M 0 0 M173.805 442.215 L173.805 438.847 L174.827 438.847 L174.827 447.495 L173.805 447.495 L173.805 446.562 Q173.482 447.117 172.988 447.39 Q172.499 447.657 171.81 447.657 Q170.683 447.657 169.972 446.756 Q169.267 445.856 169.267 444.389 Q169.267 442.921 169.972 442.021 Q170.683 441.12 171.81 441.12 Q172.499 441.12 172.988 441.393 Q173.482 441.66 173.805 442.215 M170.322 444.389 Q170.322 445.517 170.783 446.162 Q171.249 446.801 172.06 446.801 Q172.871 446.801 173.338 446.162 Q173.805 445.517 173.805 444.389 Q173.805 443.26 173.338 442.621 Q172.871 441.976 172.06 441.976 Q171.249 441.976 170.783 442.621 Q170.322 443.26 170.322 444.389 Z" fill="#000000" fill-rule="evenodd" fill-opacity="1" /><path clip-path="url(#clip700)" d="M 0 0 M181.22 444.127 L181.22 444.628 L176.521 444.628 Q176.587 445.684 177.154 446.239 Q177.726 446.79 178.742 446.79 Q179.331 446.79 179.881 446.645 Q180.437 446.501 180.981 446.212 L180.981 447.179 Q180.431 447.412 179.853 447.534 Q179.276 447.657 178.681 447.657 Q177.193 447.657 176.321 446.79 Q175.454 445.923 175.454 444.444 Q175.454 442.916 176.276 442.021 Q177.104 441.12 178.504 441.12 Q179.759 441.12 180.487 441.932 Q181.22 442.738 181.22 444.127 M180.198 443.827 Q180.187 442.988 179.726 442.488 Q179.27 441.987 178.515 441.987 Q177.659 441.987 177.143 442.471 Q176.632 442.955 176.554 443.833 L180.198 443.827 Z" fill="#000000" fill-rule="evenodd" fill-opacity="1" /><path clip-path="url(#clip700)" d="M 0 0 M182.292 438.847 L183.314 438.847 L183.314 447.495 L182.292 447.495 L182.292 438.847 Z" fill="#000000" fill-rule="evenodd" fill-opacity="1" /><path clip-path="url(#clip700)" d="M 0 0 M184.386 441.271 L185.408 441.271 L185.408 447.495 L184.386 447.495 L184.386 441.271 M184.386 438.847 L185.408 438.847 L185.408 440.142 L184.386 440.142 L184.386 438.847 Z" fill="#000000" fill-rule="evenodd" fill-opacity="1" /><path clip-path="url(#clip700)" d="M 0 0 M191.801 444.127 L191.801 444.628 L187.102 444.628 Q187.169 445.684 187.735 446.239 Q188.307 446.79 189.324 446.79 Q189.913 446.79 190.462 446.645 Q191.018 446.501 191.562 446.212 L191.562 447.179 Q191.012 447.412 190.435 447.534 Q189.857 447.657 189.263 447.657 Q187.774 447.657 186.902 446.79 Q186.036 445.923 186.036 444.444 Q186.036 442.916 186.858 442.021 Q187.685 441.12 189.085 441.12 Q190.34 441.12 191.068 441.932 Q191.801 442.738 191.801 444.127 M190.779 443.827 Q190.768 442.988 190.307 442.488 Q189.851 441.987 189.096 441.987 Q188.241 441.987 187.724 442.471 Q187.213 442.955 187.135 443.833 L190.779 443.827 Z" fill="#000000" fill-rule="evenodd" fill-opacity="1" /><path clip-path="url(#clip700)" d="M 0 0 M192.357 443.922 L195.35 443.922 L195.35 444.833 L192.357 444.833 L192.357 443.922 Z" fill="#000000" fill-rule="evenodd" fill-opacity="1" /><path clip-path="url(#clip700)" d="M 0 0 M199.572 438.847 L199.572 439.698 L198.594 439.698 Q198.044 439.698 197.828 439.92 Q197.617 440.142 197.617 440.72 L197.617 441.271 L199.3 441.271 L199.3 442.065 L197.617 442.065 L197.617 447.495 L196.589 447.495 L196.589 442.065 L195.611 442.065 L195.611 441.271 L196.589 441.271 L196.589 440.837 Q196.589 439.798 197.072 439.325 Q197.556 438.847 198.605 438.847 L199.572 438.847 Z" fill="#000000" fill-rule="evenodd" fill-opacity="1" /><path clip-path="url(#clip700)" d="M 0 0 M205.965 444.127 L205.965 444.628 L201.266 444.628 Q201.333 445.684 201.899 446.239 Q202.471 446.79 203.488 446.79 Q204.077 446.79 204.626 446.645 Q205.182 446.501 205.726 446.212 L205.726 447.179 Q205.176 447.412 204.599 447.534 Q204.021 447.657 203.427 447.657 Q201.938 447.657 201.066 446.79 Q200.199 445.923 200.199 444.444 Q200.199 442.916 201.022 442.021 Q201.849 441.12 203.249 441.12 Q204.504 441.12 205.232 441.932 Q205.965 442.738 205.965 444.127 M204.943 443.827 Q204.932 442.988 204.471 442.488 Q204.015 441.987 203.26 441.987 Q202.405 441.987 201.888 442.471 Q201.377 442.955 201.299 443.833 L204.943 443.827 Z" fill="#000000" fill-rule="evenodd" fill-opacity="1" /><path clip-path="url(#clip700)" d="M 0 0 M211.881 442.465 Q212.264 441.776 212.797 441.448 Q213.33 441.12 214.052 441.12 Q215.024 441.12 215.552 441.804 Q216.08 442.482 216.08 443.738 L216.08 447.495 L215.052 447.495 L215.052 443.772 Q215.052 442.877 214.736 442.443 Q214.419 442.01 213.769 442.01 Q212.975 442.01 212.514 442.538 Q212.053 443.066 212.053 443.977 L212.053 447.495 L211.025 447.495 L211.025 443.772 Q211.025 442.871 210.709 442.443 Q210.392 442.01 209.731 442.01 Q208.948 442.01 208.487 442.543 Q208.026 443.071 208.026 443.977 L208.026 447.495 L206.998 447.495 L206.998 441.271 L208.026 441.271 L208.026 442.238 Q208.376 441.665 208.864 441.393 Q209.353 441.12 210.025 441.12 Q210.703 441.12 211.175 441.465 Q211.653 441.81 211.881 442.465 Z" fill="#000000" fill-rule="evenodd" fill-opacity="1" /><path clip-path="url(#clip700)" d="M 0 0 M219.979 444.366 Q218.74 444.366 218.263 444.65 Q217.785 444.933 217.785 445.617 Q217.785 446.162 218.14 446.484 Q218.502 446.801 219.118 446.801 Q219.968 446.801 220.479 446.2 Q220.995 445.595 220.995 444.594 L220.995 444.366 L219.979 444.366 M222.018 443.944 L222.018 447.495 L220.995 447.495 L220.995 446.551 Q220.646 447.117 220.123 447.39 Q219.601 447.657 218.846 447.657 Q217.891 447.657 217.324 447.123 Q216.763 446.584 216.763 445.684 Q216.763 444.633 217.463 444.1 Q218.168 443.566 219.562 443.566 L220.995 443.566 L220.995 443.466 Q220.995 442.76 220.529 442.377 Q220.068 441.987 219.229 441.987 Q218.696 441.987 218.19 442.115 Q217.685 442.243 217.218 442.499 L217.218 441.554 Q217.779 441.337 218.307 441.232 Q218.835 441.12 219.335 441.12 Q220.684 441.12 221.351 441.821 Q222.018 442.521 222.018 443.944 Z" fill="#000000" fill-rule="evenodd" fill-opacity="1" /><path clip-path="url(#clip700)" d="M 0 0 M223.09 438.847 L224.112 438.847 L224.112 447.495 L223.09 447.495 L223.09 438.847 Z" fill="#000000" fill-rule="evenodd" fill-opacity="1" /><path clip-path="url(#clip700)" d="M 0 0 M230.505 444.127 L230.505 444.628 L225.806 444.628 Q225.872 445.684 226.439 446.239 Q227.011 446.79 228.027 446.79 Q228.616 446.79 229.166 446.645 Q229.722 446.501 230.266 446.212 L230.266 447.179 Q229.716 447.412 229.138 447.534 Q228.561 447.657 227.966 447.657 Q226.478 447.657 225.606 446.79 Q224.739 445.923 224.739 444.444 Q224.739 442.916 225.561 442.021 Q226.389 441.12 227.789 441.12 Q229.044 441.12 229.772 441.932 Q230.505 442.738 230.505 444.127 M229.483 443.827 Q229.472 442.988 229.011 442.488 Q228.555 441.987 227.8 441.987 Q226.944 441.987 226.428 442.471 Q225.917 442.955 225.839 443.833 L229.483 443.827 Z" fill="#000000" fill-rule="evenodd" fill-opacity="1" /><path clip-path="url(#clip700)" d="M 0 0 M261.486 446.312 L261.486 444.083 L259.653 444.083 L259.653 443.16 L262.597 443.16 L262.597 446.723 Q261.947 447.184 261.164 447.423 Q260.381 447.657 259.492 447.657 Q257.548 447.657 256.448 446.523 Q255.354 445.383 255.354 443.355 Q255.354 441.321 256.448 440.187 Q257.548 439.047 259.492 439.047 Q260.303 439.047 261.031 439.247 Q261.764 439.448 262.38 439.837 L262.38 441.032 Q261.758 440.504 261.058 440.237 Q260.359 439.97 259.587 439.97 Q258.065 439.97 257.298 440.82 Q256.537 441.671 256.537 443.355 Q256.537 445.033 257.298 445.884 Q258.065 446.734 259.587 446.734 Q260.181 446.734 260.647 446.634 Q261.114 446.528 261.486 446.312 Z" fill="#000000" fill-rule="evenodd" fill-opacity="1" /><path clip-path="url(#clip700)" d="M 0 0 M268.99 444.127 L268.99 444.628 L264.291 444.628 Q264.358 445.684 264.924 446.239 Q265.497 446.79 266.513 446.79 Q267.102 446.79 267.652 446.645 Q268.207 446.501 268.751 446.212 L268.751 447.179 Q268.202 447.412 267.624 447.534 Q267.046 447.657 266.452 447.657 Q264.963 447.657 264.091 446.79 Q263.225 445.923 263.225 444.444 Q263.225 442.916 264.047 442.021 Q264.874 441.12 266.274 441.12 Q267.529 441.12 268.257 441.932 Q268.99 442.738 268.99 444.127 M267.968 443.827 Q267.957 442.988 267.496 442.488 Q267.041 441.987 266.285 441.987 Q265.43 441.987 264.913 442.471 Q264.402 442.955 264.325 443.833 L267.968 443.827 Z" fill="#000000" fill-rule="evenodd" fill-opacity="1" /><path clip-path="url(#clip700)" d="M 0 0 M275.234 443.738 L275.234 447.495 L274.212 447.495 L274.212 443.772 Q274.212 442.888 273.867 442.449 Q273.523 442.01 272.834 442.01 Q272.006 442.01 271.529 442.538 Q271.051 443.066 271.051 443.977 L271.051 447.495 L270.023 447.495 L270.023 441.271 L271.051 441.271 L271.051 442.238 Q271.418 441.676 271.912 441.398 Q272.412 441.12 273.062 441.12 Q274.134 441.12 274.684 441.787 Q275.234 442.449 275.234 443.738 Z" fill="#000000" fill-rule="evenodd" fill-opacity="1" /><path clip-path="url(#clip700)" d="M 0 0 M277.316 439.503 L277.316 441.271 L279.422 441.271 L279.422 442.065 L277.316 442.065 L277.316 445.445 Q277.316 446.206 277.522 446.423 Q277.733 446.639 278.372 446.639 L279.422 446.639 L279.422 447.495 L278.372 447.495 Q277.189 447.495 276.739 447.056 Q276.289 446.612 276.289 445.445 L276.289 442.065 L275.539 442.065 L275.539 441.271 L276.289 441.271 L276.289 439.503 L277.316 439.503 Z" fill="#000000" fill-rule="evenodd" fill-opacity="1" /><path clip-path="url(#clip700)" d="M 0 0 M282.904 441.987 Q282.082 441.987 281.605 442.632 Q281.127 443.271 281.127 444.389 Q281.127 445.506 281.599 446.15 Q282.077 446.79 282.904 446.79 Q283.721 446.79 284.199 446.145 Q284.676 445.5 284.676 444.389 Q284.676 443.282 284.199 442.638 Q283.721 441.987 282.904 441.987 M282.904 441.12 Q284.237 441.12 284.998 441.987 Q285.759 442.855 285.759 444.389 Q285.759 445.917 284.998 446.79 Q284.237 447.657 282.904 447.657 Q281.566 447.657 280.805 446.79 Q280.049 445.917 280.049 444.389 Q280.049 442.855 280.805 441.987 Q281.566 441.12 282.904 441.12 Z" fill="#000000" fill-rule="evenodd" fill-opacity="1" /><path clip-path="url(#clip700)" d="M 0 0 M289.242 441.987 Q288.42 441.987 287.942 442.632 Q287.465 443.271 287.465 444.389 Q287.465 445.506 287.937 446.15 Q288.414 446.79 289.242 446.79 Q290.058 446.79 290.536 446.145 Q291.014 445.5 291.014 444.389 Q291.014 443.282 290.536 442.638 Q290.058 441.987 289.242 441.987 M289.242 441.12 Q290.575 441.12 291.336 441.987 Q292.097 442.855 292.097 444.389 Q292.097 445.917 291.336 446.79 Q290.575 447.657 289.242 447.657 Q287.903 447.657 287.142 446.79 Q286.387 445.917 286.387 444.389 Q286.387 442.855 287.142 441.987 Q287.903 441.12 289.242 441.12 Z" fill="#000000" fill-rule="evenodd" fill-opacity="1" /><path clip-path="url(#clip700)" d="M 0 0 M292.864 443.922 L295.857 443.922 L295.857 444.833 L292.864 444.833 L292.864 443.922 Z" fill="#000000" fill-rule="evenodd" fill-opacity="1" /><path clip-path="url(#clip700)" d="M 0 0 M301.773 442.465 Q302.156 441.776 302.689 441.448 Q303.223 441.12 303.945 441.12 Q304.917 441.12 305.444 441.804 Q305.972 442.482 305.972 443.738 L305.972 447.495 L304.945 447.495 L304.945 443.772 Q304.945 442.877 304.628 442.443 Q304.311 442.01 303.661 442.01 Q302.867 442.01 302.406 442.538 Q301.945 443.066 301.945 443.977 L301.945 447.495 L300.918 447.495 L300.918 443.772 Q300.918 442.871 300.601 442.443 Q300.284 442.01 299.623 442.01 Q298.84 442.01 298.379 442.543 Q297.918 443.071 297.918 443.977 L297.918 447.495 L296.891 447.495 L296.891 441.271 L297.918 441.271 L297.918 442.238 Q298.268 441.665 298.757 441.393 Q299.246 441.12 299.918 441.12 Q300.595 441.12 301.067 441.465 Q301.545 441.81 301.773 442.465 Z" fill="#000000" fill-rule="evenodd" fill-opacity="1" /><path clip-path="url(#clip700)" d="M 0 0 M309.871 444.366 Q308.633 444.366 308.155 444.65 Q307.677 444.933 307.677 445.617 Q307.677 446.162 308.033 446.484 Q308.394 446.801 309.01 446.801 Q309.86 446.801 310.371 446.2 Q310.888 445.595 310.888 444.594 L310.888 444.366 L309.871 444.366 M311.91 443.944 L311.91 447.495 L310.888 447.495 L310.888 446.551 Q310.538 447.117 310.016 447.39 Q309.494 447.657 308.738 447.657 Q307.783 447.657 307.216 447.123 Q306.655 446.584 306.655 445.684 Q306.655 444.633 307.355 444.1 Q308.061 443.566 309.455 443.566 L310.888 443.566 L310.888 443.466 Q310.888 442.76 310.421 442.377 Q309.96 441.987 309.122 441.987 Q308.588 441.987 308.083 442.115 Q307.577 442.243 307.111 442.499 L307.111 441.554 Q307.672 441.337 308.199 441.232 Q308.727 441.12 309.227 441.12 Q310.577 441.12 311.243 441.821 Q311.91 442.521 311.91 443.944 Z" fill="#000000" fill-rule="evenodd" fill-opacity="1" /><path clip-path="url(#clip700)" d="M 0 0 M312.982 438.847 L314.004 438.847 L314.004 447.495 L312.982 447.495 L312.982 438.847 Z" fill="#000000" fill-rule="evenodd" fill-opacity="1" /><path clip-path="url(#clip700)" d="M 0 0 M320.397 444.127 L320.397 444.628 L315.698 444.628 Q315.765 445.684 316.331 446.239 Q316.903 446.79 317.92 446.79 Q318.509 446.79 319.058 446.645 Q319.614 446.501 320.158 446.212 L320.158 447.179 Q319.608 447.412 319.031 447.534 Q318.453 447.657 317.859 447.657 Q316.37 447.657 315.498 446.79 Q314.632 445.923 314.632 444.444 Q314.632 442.916 315.454 442.021 Q316.281 441.12 317.681 441.12 Q318.936 441.12 319.664 441.932 Q320.397 442.738 320.397 444.127 M319.375 443.827 Q319.364 442.988 318.903 442.488 Q318.448 441.987 317.692 441.987 Q316.837 441.987 316.32 442.471 Q315.809 442.955 315.731 443.833 L319.375 443.827 Z" fill="#000000" fill-rule="evenodd" fill-opacity="1" /><path clip-path="url(#clip700)" d="M 0 0 M348.182 446.312 L348.182 444.083 L346.349 444.083 L346.349 443.16 L349.293 443.16 L349.293 446.723 Q348.643 447.184 347.86 447.423 Q347.077 447.657 346.188 447.657 Q344.244 447.657 343.144 446.523 Q342.05 445.383 342.05 443.355 Q342.05 441.321 343.144 440.187 Q344.244 439.047 346.188 439.047 Q346.999 439.047 347.726 439.247 Q348.46 439.448 349.076 439.837 L349.076 441.032 Q348.454 440.504 347.754 440.237 Q347.054 439.97 346.282 439.97 Q344.76 439.97 343.994 440.82 Q343.233 441.671 343.233 443.355 Q343.233 445.033 343.994 445.884 Q344.76 446.734 346.282 446.734 Q346.877 446.734 347.343 446.634 Q347.81 446.528 348.182 446.312 Z" fill="#000000" fill-rule="evenodd" fill-opacity="1" /><path clip-path="url(#clip700)" d="M 0 0 M355.686 444.127 L355.686 444.628 L350.987 444.628 Q351.054 445.684 351.62 446.239 Q352.192 446.79 353.209 446.79 Q353.798 446.79 354.347 446.645 Q354.903 446.501 355.447 446.212 L355.447 447.179 Q354.897 447.412 354.32 447.534 Q353.742 447.657 353.148 447.657 Q351.659 447.657 350.787 446.79 Q349.92 445.923 349.92 444.444 Q349.92 442.916 350.743 442.021 Q351.57 441.12 352.97 441.12 Q354.225 441.12 354.953 441.932 Q355.686 442.738 355.686 444.127 M354.664 443.827 Q354.653 442.988 354.192 442.488 Q353.736 441.987 352.981 441.987 Q352.126 441.987 351.609 442.471 Q351.098 442.955 351.02 443.833 L354.664 443.827 Z" fill="#000000" fill-rule="evenodd" fill-opacity="1" /><path clip-path="url(#clip700)" d="M 0 0 M361.929 443.738 L361.929 447.495 L360.907 447.495 L360.907 443.772 Q360.907 442.888 360.563 442.449 Q360.219 442.01 359.53 442.01 Q358.702 442.01 358.224 442.538 Q357.747 443.066 357.747 443.977 L357.747 447.495 L356.719 447.495 L356.719 441.271 L357.747 441.271 L357.747 442.238 Q358.113 441.676 358.608 441.398 Q359.108 441.12 359.757 441.12 Q360.829 441.12 361.379 441.787 Q361.929 442.449 361.929 443.738 Z" fill="#000000" fill-rule="evenodd" fill-opacity="1" /><path clip-path="url(#clip700)" d="M 0 0 M364.012 439.503 L364.012 441.271 L366.117 441.271 L366.117 442.065 L364.012 442.065 L364.012 445.445 Q364.012 446.206 364.218 446.423 Q364.429 446.639 365.068 446.639 L366.117 446.639 L366.117 447.495 L365.068 447.495 Q363.884 447.495 363.435 447.056 Q362.985 446.612 362.985 445.445 L362.985 442.065 L362.235 442.065 L362.235 441.271 L362.985 441.271 L362.985 439.503 L364.012 439.503 Z" fill="#000000" fill-rule="evenodd" fill-opacity="1" /><path clip-path="url(#clip700)" d="M 0 0 M369.6 441.987 Q368.778 441.987 368.3 442.632 Q367.823 443.271 367.823 444.389 Q367.823 445.506 368.295 446.15 Q368.772 446.79 369.6 446.79 Q370.417 446.79 370.894 446.145 Q371.372 445.5 371.372 444.389 Q371.372 443.282 370.894 442.638 Q370.417 441.987 369.6 441.987 M369.6 441.12 Q370.933 441.12 371.694 441.987 Q372.455 442.855 372.455 444.389 Q372.455 445.917 371.694 446.79 Q370.933 447.657 369.6 447.657 Q368.261 447.657 367.5 446.79 Q366.745 445.917 366.745 444.389 Q366.745 442.855 367.5 441.987 Q368.261 441.12 369.6 441.12 Z" fill="#000000" fill-rule="evenodd" fill-opacity="1" /><path clip-path="url(#clip700)" d="M 0 0 M375.938 441.987 Q375.116 441.987 374.638 442.632 Q374.16 443.271 374.16 444.389 Q374.16 445.506 374.632 446.15 Q375.11 446.79 375.938 446.79 Q376.754 446.79 377.232 446.145 Q377.71 445.5 377.71 444.389 Q377.71 443.282 377.232 442.638 Q376.754 441.987 375.938 441.987 M375.938 441.12 Q377.271 441.12 378.032 441.987 Q378.793 442.855 378.793 444.389 Q378.793 445.917 378.032 446.79 Q377.271 447.657 375.938 447.657 Q374.599 447.657 373.838 446.79 Q373.083 445.917 373.083 444.389 Q373.083 442.855 373.838 441.987 Q374.599 441.12 375.938 441.12 Z" fill="#000000" fill-rule="evenodd" fill-opacity="1" /><path clip-path="url(#clip700)" d="M 0 0 M379.559 443.922 L382.553 443.922 L382.553 444.833 L379.559 444.833 L379.559 443.922 Z" fill="#000000" fill-rule="evenodd" fill-opacity="1" /><path clip-path="url(#clip700)" d="M 0 0 M386.775 438.847 L386.775 439.698 L385.797 439.698 Q385.247 439.698 385.03 439.92 Q384.819 440.142 384.819 440.72 L384.819 441.271 L386.502 441.271 L386.502 442.065 L384.819 442.065 L384.819 447.495 L383.792 447.495 L383.792 442.065 L382.814 442.065 L382.814 441.271 L383.792 441.271 L383.792 440.837 Q383.792 439.798 384.275 439.325 Q384.758 438.847 385.808 438.847 L386.775 438.847 Z" fill="#000000" fill-rule="evenodd" fill-opacity="1" /><path clip-path="url(#clip700)" d="M 0 0 M393.168 444.127 L393.168 444.628 L388.469 444.628 Q388.535 445.684 389.102 446.239 Q389.674 446.79 390.69 446.79 Q391.279 446.79 391.829 446.645 Q392.385 446.501 392.929 446.212 L392.929 447.179 Q392.379 447.412 391.801 447.534 Q391.224 447.657 390.629 447.657 Q389.141 447.657 388.269 446.79 Q387.402 445.923 387.402 444.444 Q387.402 442.916 388.224 442.021 Q389.052 441.12 390.452 441.12 Q391.707 441.12 392.435 441.932 Q393.168 442.738 393.168 444.127 M392.146 443.827 Q392.135 442.988 391.674 442.488 Q391.218 441.987 390.463 441.987 Q389.607 441.987 389.091 442.471 Q388.58 442.955 388.502 443.833 L392.146 443.827 Z" fill="#000000" fill-rule="evenodd" fill-opacity="1" /><path clip-path="url(#clip700)" d="M 0 0 M399.083 442.465 Q399.467 441.776 400 441.448 Q400.533 441.12 401.255 441.12 Q402.227 441.12 402.755 441.804 Q403.282 442.482 403.282 443.738 L403.282 447.495 L402.255 447.495 L402.255 443.772 Q402.255 442.877 401.938 442.443 Q401.622 442.01 400.972 442.01 Q400.178 442.01 399.716 442.538 Q399.255 443.066 399.255 443.977 L399.255 447.495 L398.228 447.495 L398.228 443.772 Q398.228 442.871 397.911 442.443 Q397.595 442.01 396.934 442.01 Q396.151 442.01 395.689 442.543 Q395.228 443.071 395.228 443.977 L395.228 447.495 L394.201 447.495 L394.201 441.271 L395.228 441.271 L395.228 442.238 Q395.578 441.665 396.067 441.393 Q396.556 441.12 397.228 441.12 Q397.906 441.12 398.378 441.465 Q398.856 441.81 399.083 442.465 Z" fill="#000000" fill-rule="evenodd" fill-opacity="1" /><path clip-path="url(#clip700)" d="M 0 0 M407.182 444.366 Q405.943 444.366 405.465 444.65 Q404.988 444.933 404.988 445.617 Q404.988 446.162 405.343 446.484 Q405.704 446.801 406.321 446.801 Q407.171 446.801 407.682 446.2 Q408.198 445.595 408.198 444.594 L408.198 444.366 L407.182 444.366 M409.22 443.944 L409.22 447.495 L408.198 447.495 L408.198 446.551 Q407.848 447.117 407.326 447.39 Q406.804 447.657 406.049 447.657 Q405.093 447.657 404.527 447.123 Q403.966 446.584 403.966 445.684 Q403.966 444.633 404.666 444.1 Q405.371 443.566 406.765 443.566 L408.198 443.566 L408.198 443.466 Q408.198 442.76 407.732 442.377 Q407.271 441.987 406.432 441.987 Q405.899 441.987 405.393 442.115 Q404.888 442.243 404.421 442.499 L404.421 441.554 Q404.982 441.337 405.51 441.232 Q406.038 441.12 406.537 441.12 Q407.887 441.12 408.554 441.821 Q409.22 442.521 409.22 443.944 Z" fill="#000000" fill-rule="evenodd" fill-opacity="1" /><path clip-path="url(#clip700)" d="M 0 0 M410.292 438.847 L411.314 438.847 L411.314 447.495 L410.292 447.495 L410.292 438.847 Z" fill="#000000" fill-rule="evenodd" fill-opacity="1" /><path clip-path="url(#clip700)" d="M 0 0 M417.707 444.127 L417.707 444.628 L413.008 444.628 Q413.075 445.684 413.642 446.239 Q414.214 446.79 415.23 446.79 Q415.819 446.79 416.369 446.645 Q416.924 446.501 417.469 446.212 L417.469 447.179 Q416.919 447.412 416.341 447.534 Q415.763 447.657 415.169 447.657 Q413.68 447.657 412.808 446.79 Q411.942 445.923 411.942 444.444 Q411.942 442.916 412.764 442.021 Q413.592 441.12 414.991 441.12 Q416.247 441.12 416.974 441.932 Q417.707 442.738 417.707 444.127 M416.685 443.827 Q416.674 442.988 416.213 442.488 Q415.758 441.987 415.002 441.987 Q414.147 441.987 413.631 442.471 Q413.119 442.955 413.042 443.833 L416.685 443.827 Z" fill="#000000" fill-rule="evenodd" fill-opacity="1" /><path clip-path="url(#clip700)" d="M 0 0 M440.504 439.837 L440.504 441.02 Q439.938 440.492 439.293 440.231 Q438.655 439.97 437.933 439.97 Q436.511 439.97 435.755 440.843 Q435 441.71 435 443.355 Q435 444.994 435.755 445.867 Q436.511 446.734 437.933 446.734 Q438.655 446.734 439.293 446.473 Q439.938 446.212 440.504 445.684 L440.504 446.856 Q439.916 447.256 439.255 447.457 Q438.599 447.657 437.866 447.657 Q435.983 447.657 434.9 446.506 Q433.817 445.35 433.817 443.355 Q433.817 441.354 434.9 440.203 Q435.983 439.047 437.866 439.047 Q438.61 439.047 439.266 439.247 Q439.927 439.442 440.504 439.837 Z" fill="#000000" fill-rule="evenodd" fill-opacity="1" /><path clip-path="url(#clip700)" d="M 0 0 M446.748 443.738 L446.748 447.495 L445.726 447.495 L445.726 443.772 Q445.726 442.888 445.381 442.449 Q445.037 442.01 444.348 442.01 Q443.52 442.01 443.043 442.538 Q442.565 443.066 442.565 443.977 L442.565 447.495 L441.537 447.495 L441.537 438.847 L442.565 438.847 L442.565 442.238 Q442.932 441.676 443.426 441.398 Q443.926 441.12 444.576 441.12 Q445.648 441.12 446.198 441.787 Q446.748 442.449 446.748 443.738 Z" fill="#000000" fill-rule="evenodd" fill-opacity="1" /><path clip-path="url(#clip700)" d="M 0 0 M447.82 441.271 L448.842 441.271 L448.842 447.495 L447.82 447.495 L447.82 441.271 M447.82 438.847 L448.842 438.847 L448.842 440.142 L447.82 440.142 L447.82 438.847 Z" fill="#000000" fill-rule="evenodd" fill-opacity="1" /><path clip-path="url(#clip700)" d="M 0 0 M455.085 443.738 L455.085 447.495 L454.063 447.495 L454.063 443.772 Q454.063 442.888 453.718 442.449 Q453.374 442.01 452.685 442.01 Q451.858 442.01 451.38 442.538 Q450.902 443.066 450.902 443.977 L450.902 447.495 L449.875 447.495 L449.875 441.271 L450.902 441.271 L450.902 442.238 Q451.269 441.676 451.763 441.398 Q452.263 441.12 452.913 441.12 Q453.985 441.12 454.535 441.787 Q455.085 442.449 455.085 443.738 Z" fill="#000000" fill-rule="evenodd" fill-opacity="1" /><path clip-path="url(#clip700)" d="M 0 0 M460.123 441.454 L460.123 442.421 Q459.69 442.199 459.223 442.088 Q458.756 441.976 458.257 441.976 Q457.496 441.976 457.112 442.21 Q456.735 442.443 456.735 442.91 Q456.735 443.266 457.007 443.471 Q457.279 443.672 458.101 443.855 L458.451 443.933 Q459.54 444.166 459.995 444.594 Q460.456 445.017 460.456 445.778 Q460.456 446.645 459.767 447.151 Q459.084 447.657 457.884 447.657 Q457.384 447.657 456.84 447.557 Q456.301 447.462 455.701 447.268 L455.701 446.212 Q456.268 446.506 456.818 446.656 Q457.368 446.801 457.907 446.801 Q458.629 446.801 459.017 446.556 Q459.406 446.306 459.406 445.856 Q459.406 445.439 459.123 445.217 Q458.845 444.994 457.895 444.789 L457.54 444.705 Q456.59 444.505 456.168 444.094 Q455.746 443.677 455.746 442.955 Q455.746 442.076 456.368 441.598 Q456.99 441.12 458.134 441.12 Q458.701 441.12 459.201 441.204 Q459.701 441.287 460.123 441.454 Z" fill="#000000" fill-rule="evenodd" fill-opacity="1" /><path clip-path="url(#clip700)" d="M 0 0 M462.539 439.503 L462.539 441.271 L464.644 441.271 L464.644 442.065 L462.539 442.065 L462.539 445.445 Q462.539 446.206 462.745 446.423 Q462.956 446.639 463.594 446.639 L464.644 446.639 L464.644 447.495 L463.594 447.495 Q462.411 447.495 461.961 447.056 Q461.511 446.612 461.511 445.445 L461.511 442.065 L460.762 442.065 L460.762 441.271 L461.511 441.271 L461.511 439.503 L462.539 439.503 Z" fill="#000000" fill-rule="evenodd" fill-opacity="1" /><path clip-path="url(#clip700)" d="M 0 0 M469.321 442.226 Q469.149 442.126 468.943 442.082 Q468.743 442.032 468.499 442.032 Q467.632 442.032 467.166 442.599 Q466.705 443.16 466.705 444.216 L466.705 447.495 L465.677 447.495 L465.677 441.271 L466.705 441.271 L466.705 442.238 Q467.027 441.671 467.544 441.398 Q468.06 441.12 468.799 441.12 Q468.904 441.12 469.032 441.137 Q469.16 441.148 469.316 441.176 L469.321 442.226 Z" fill="#000000" fill-rule="evenodd" fill-opacity="1" /><path clip-path="url(#clip700)" d="M 0 0 M473.22 444.366 Q471.982 444.366 471.504 444.65 Q471.026 444.933 471.026 445.617 Q471.026 446.162 471.382 446.484 Q471.743 446.801 472.359 446.801 Q473.209 446.801 473.72 446.2 Q474.237 445.595 474.237 444.594 L474.237 444.366 L473.22 444.366 M475.259 443.944 L475.259 447.495 L474.237 447.495 L474.237 446.551 Q473.887 447.117 473.365 447.39 Q472.843 447.657 472.087 447.657 Q471.132 447.657 470.565 447.123 Q470.004 446.584 470.004 445.684 Q470.004 444.633 470.704 444.1 Q471.41 443.566 472.804 443.566 L474.237 443.566 L474.237 443.466 Q474.237 442.76 473.77 442.377 Q473.309 441.987 472.47 441.987 Q471.937 441.987 471.432 442.115 Q470.926 442.243 470.46 442.499 L470.46 441.554 Q471.021 441.337 471.548 441.232 Q472.076 441.12 472.576 441.12 Q473.926 441.12 474.592 441.821 Q475.259 442.521 475.259 443.944 Z" fill="#000000" fill-rule="evenodd" fill-opacity="1" /><path clip-path="url(#clip700)" d="M 0 0 M477.32 446.562 L477.32 449.863 L476.292 449.863 L476.292 441.271 L477.32 441.271 L477.32 442.215 Q477.642 441.66 478.13 441.393 Q478.625 441.12 479.308 441.12 Q480.441 441.12 481.147 442.021 Q481.858 442.921 481.858 444.389 Q481.858 445.856 481.147 446.756 Q480.441 447.657 479.308 447.657 Q478.625 447.657 478.13 447.39 Q477.642 447.117 477.32 446.562 M480.797 444.389 Q480.797 443.26 480.33 442.621 Q479.869 441.976 479.058 441.976 Q478.247 441.976 477.781 442.621 Q477.32 443.26 477.32 444.389 Q477.32 445.517 477.781 446.162 Q478.247 446.801 479.058 446.801 Q479.869 446.801 480.33 446.162 Q480.797 445.517 480.797 444.389 Z" fill="#000000" fill-rule="evenodd" fill-opacity="1" /><path clip-path="url(#clip700)" d="M 0 0 M482.413 443.922 L485.407 443.922 L485.407 444.833 L482.413 444.833 L482.413 443.922 Z" fill="#000000" fill-rule="evenodd" fill-opacity="1" /><path clip-path="url(#clip700)" d="M 0 0 M491.322 442.465 Q491.706 441.776 492.239 441.448 Q492.772 441.12 493.494 441.12 Q494.466 441.12 494.994 441.804 Q495.522 442.482 495.522 443.738 L495.522 447.495 L494.494 447.495 L494.494 443.772 Q494.494 442.877 494.177 442.443 Q493.861 442.01 493.211 442.01 Q492.417 442.01 491.956 442.538 Q491.495 443.066 491.495 443.977 L491.495 447.495 L490.467 447.495 L490.467 443.772 Q490.467 442.871 490.15 442.443 Q489.834 442.01 489.173 442.01 Q488.39 442.01 487.929 442.543 Q487.468 443.071 487.468 443.977 L487.468 447.495 L486.44 447.495 L486.44 441.271 L487.468 441.271 L487.468 442.238 Q487.818 441.665 488.306 441.393 Q488.795 441.12 489.467 441.12 Q490.145 441.12 490.617 441.465 Q491.095 441.81 491.322 442.465 Z" fill="#000000" fill-rule="evenodd" fill-opacity="1" /><path clip-path="url(#clip700)" d="M 0 0 M499.421 444.366 Q498.182 444.366 497.705 444.65 Q497.227 444.933 497.227 445.617 Q497.227 446.162 497.582 446.484 Q497.943 446.801 498.56 446.801 Q499.41 446.801 499.921 446.2 Q500.437 445.595 500.437 444.594 L500.437 444.366 L499.421 444.366 M501.459 443.944 L501.459 447.495 L500.437 447.495 L500.437 446.551 Q500.087 447.117 499.565 447.39 Q499.043 447.657 498.288 447.657 Q497.332 447.657 496.766 447.123 Q496.205 446.584 496.205 445.684 Q496.205 444.633 496.905 444.1 Q497.61 443.566 499.004 443.566 L500.437 443.566 L500.437 443.466 Q500.437 442.76 499.971 442.377 Q499.51 441.987 498.671 441.987 Q498.138 441.987 497.632 442.115 Q497.127 442.243 496.66 442.499 L496.66 441.554 Q497.221 441.337 497.749 441.232 Q498.277 441.12 498.777 441.12 Q500.126 441.12 500.793 441.821 Q501.459 442.521 501.459 443.944 Z" fill="#000000" fill-rule="evenodd" fill-opacity="1" /><path clip-path="url(#clip700)" d="M 0 0 M502.531 438.847 L503.553 438.847 L503.553 447.495 L502.531 447.495 L502.531 438.847 Z" fill="#000000" fill-rule="evenodd" fill-opacity="1" /><path clip-path="url(#clip700)" d="M 0 0 M509.947 444.127 L509.947 444.628 L505.248 444.628 Q505.314 445.684 505.881 446.239 Q506.453 446.79 507.469 446.79 Q508.058 446.79 508.608 446.645 Q509.163 446.501 509.708 446.212 L509.708 447.179 Q509.158 447.412 508.58 447.534 Q508.003 447.657 507.408 447.657 Q505.92 447.657 505.048 446.79 Q504.181 445.923 504.181 444.444 Q504.181 442.916 505.003 442.021 Q505.831 441.12 507.23 441.12 Q508.486 441.12 509.213 441.932 Q509.947 442.738 509.947 444.127 M508.925 443.827 Q508.913 442.988 508.452 442.488 Q507.997 441.987 507.242 441.987 Q506.386 441.987 505.87 442.471 Q505.359 442.955 505.281 443.833 L508.925 443.827 Z" fill="#000000" fill-rule="evenodd" fill-opacity="1" /><path clip-path="url(#clip700)" d="M 0 0 M527.2 439.837 L527.2 441.02 Q526.634 440.492 525.989 440.231 Q525.35 439.97 524.628 439.97 Q523.206 439.97 522.451 440.843 Q521.696 441.71 521.696 443.355 Q521.696 444.994 522.451 445.867 Q523.206 446.734 524.628 446.734 Q525.35 446.734 525.989 446.473 Q526.634 446.212 527.2 445.684 L527.2 446.856 Q526.611 447.256 525.95 447.457 Q525.295 447.657 524.562 447.657 Q522.679 447.657 521.596 446.506 Q520.512 445.35 520.512 443.355 Q520.512 441.354 521.596 440.203 Q522.679 439.047 524.562 439.047 Q525.306 439.047 525.961 439.247 Q526.622 439.442 527.2 439.837 Z" fill="#000000" fill-rule="evenodd" fill-opacity="1" /><path clip-path="url(#clip700)" d="M 0 0 M533.443 443.738 L533.443 447.495 L532.421 447.495 L532.421 443.772 Q532.421 442.888 532.077 442.449 Q531.733 442.01 531.044 442.01 Q530.216 442.01 529.738 442.538 Q529.261 443.066 529.261 443.977 L529.261 447.495 L528.233 447.495 L528.233 438.847 L529.261 438.847 L529.261 442.238 Q529.627 441.676 530.122 441.398 Q530.622 441.12 531.272 441.12 Q532.344 441.12 532.893 441.787 Q533.443 442.449 533.443 443.738 Z" fill="#000000" fill-rule="evenodd" fill-opacity="1" /><path clip-path="url(#clip700)" d="M 0 0 M534.515 441.271 L535.537 441.271 L535.537 447.495 L534.515 447.495 L534.515 441.271 M534.515 438.847 L535.537 438.847 L535.537 440.142 L534.515 440.142 L534.515 438.847 Z" fill="#000000" fill-rule="evenodd" fill-opacity="1" /><path clip-path="url(#clip700)" d="M 0 0 M541.781 443.738 L541.781 447.495 L540.759 447.495 L540.759 443.772 Q540.759 442.888 540.414 442.449 Q540.07 442.01 539.381 442.01 Q538.553 442.01 538.076 442.538 Q537.598 443.066 537.598 443.977 L537.598 447.495 L536.571 447.495 L536.571 441.271 L537.598 441.271 L537.598 442.238 Q537.965 441.676 538.459 441.398 Q538.959 441.12 539.609 441.12 Q540.681 441.12 541.231 441.787 Q541.781 442.449 541.781 443.738 Z" fill="#000000" fill-rule="evenodd" fill-opacity="1" /><path clip-path="url(#clip700)" d="M 0 0 M546.819 441.454 L546.819 442.421 Q546.385 442.199 545.919 442.088 Q545.452 441.976 544.952 441.976 Q544.191 441.976 543.808 442.21 Q543.43 442.443 543.43 442.91 Q543.43 443.266 543.702 443.471 Q543.975 443.672 544.797 443.855 L545.147 443.933 Q546.235 444.166 546.691 444.594 Q547.152 445.017 547.152 445.778 Q547.152 446.645 546.463 447.151 Q545.78 447.657 544.58 447.657 Q544.08 447.657 543.536 447.557 Q542.997 447.462 542.397 447.268 L542.397 446.212 Q542.964 446.506 543.514 446.656 Q544.064 446.801 544.602 446.801 Q545.324 446.801 545.713 446.556 Q546.102 446.306 546.102 445.856 Q546.102 445.439 545.819 445.217 Q545.541 444.994 544.591 444.789 L544.236 444.705 Q543.286 444.505 542.864 444.094 Q542.442 443.677 542.442 442.955 Q542.442 442.076 543.064 441.598 Q543.686 441.12 544.83 441.12 Q545.397 441.12 545.897 441.204 Q546.396 441.287 546.819 441.454 Z" fill="#000000" fill-rule="evenodd" fill-opacity="1" /><path clip-path="url(#clip700)" d="M 0 0 M549.235 439.503 L549.235 441.271 L551.34 441.271 L551.34 442.065 L549.235 442.065 L549.235 445.445 Q549.235 446.206 549.44 446.423 Q549.651 446.639 550.29 446.639 L551.34 446.639 L551.34 447.495 L550.29 447.495 Q549.107 447.495 548.657 447.056 Q548.207 446.612 548.207 445.445 L548.207 442.065 L547.457 442.065 L547.457 441.271 L548.207 441.271 L548.207 439.503 L549.235 439.503 Z" fill="#000000" fill-rule="evenodd" fill-opacity="1" /><path clip-path="url(#clip700)" d="M 0 0 M556.017 442.226 Q555.845 442.126 555.639 442.082 Q555.439 442.032 555.195 442.032 Q554.328 442.032 553.862 442.599 Q553.401 443.16 553.401 444.216 L553.401 447.495 L552.373 447.495 L552.373 441.271 L553.401 441.271 L553.401 442.238 Q553.723 441.671 554.239 441.398 Q554.756 441.12 555.495 441.12 Q555.6 441.12 555.728 441.137 Q555.856 441.148 556.011 441.176 L556.017 442.226 Z" fill="#000000" fill-rule="evenodd" fill-opacity="1" /><path clip-path="url(#clip700)" d="M 0 0 M559.916 444.366 Q558.677 444.366 558.2 444.65 Q557.722 444.933 557.722 445.617 Q557.722 446.162 558.078 446.484 Q558.439 446.801 559.055 446.801 Q559.905 446.801 560.416 446.2 Q560.933 445.595 560.933 444.594 L560.933 444.366 L559.916 444.366 M561.955 443.944 L561.955 447.495 L560.933 447.495 L560.933 446.551 Q560.583 447.117 560.06 447.39 Q559.538 447.657 558.783 447.657 Q557.828 447.657 557.261 447.123 Q556.7 446.584 556.7 445.684 Q556.7 444.633 557.4 444.1 Q558.105 443.566 559.499 443.566 L560.933 443.566 L560.933 443.466 Q560.933 442.76 560.466 442.377 Q560.005 441.987 559.166 441.987 Q558.633 441.987 558.128 442.115 Q557.622 442.243 557.155 442.499 L557.155 441.554 Q557.716 441.337 558.244 441.232 Q558.772 441.12 559.272 441.12 Q560.621 441.12 561.288 441.821 Q561.955 442.521 561.955 443.944 Z" fill="#000000" fill-rule="evenodd" fill-opacity="1" /><path clip-path="url(#clip700)" d="M 0 0 M564.015 446.562 L564.015 449.863 L562.988 449.863 L562.988 441.271 L564.015 441.271 L564.015 442.215 Q564.337 441.66 564.826 441.393 Q565.321 441.12 566.004 441.12 Q567.137 441.12 567.842 442.021 Q568.553 442.921 568.553 444.389 Q568.553 445.856 567.842 446.756 Q567.137 447.657 566.004 447.657 Q565.321 447.657 564.826 447.39 Q564.337 447.117 564.015 446.562 M567.492 444.389 Q567.492 443.26 567.026 442.621 Q566.565 441.976 565.754 441.976 Q564.943 441.976 564.476 442.621 Q564.015 443.26 564.015 444.389 Q564.015 445.517 564.476 446.162 Q564.943 446.801 565.754 446.801 Q566.565 446.801 567.026 446.162 Q567.492 445.517 567.492 444.389 Z" fill="#000000" fill-rule="evenodd" fill-opacity="1" /><path clip-path="url(#clip700)" d="M 0 0 M569.109 443.922 L572.103 443.922 L572.103 444.833 L569.109 444.833 L569.109 443.922 Z" fill="#000000" fill-rule="evenodd" fill-opacity="1" /><path clip-path="url(#clip700)" d="M 0 0 M576.324 438.847 L576.324 439.698 L575.346 439.698 Q574.797 439.698 574.58 439.92 Q574.369 440.142 574.369 440.72 L574.369 441.271 L576.052 441.271 L576.052 442.065 L574.369 442.065 L574.369 447.495 L573.341 447.495 L573.341 442.065 L572.364 442.065 L572.364 441.271 L573.341 441.271 L573.341 440.837 Q573.341 439.798 573.824 439.325 Q574.308 438.847 575.358 438.847 L576.324 438.847 Z" fill="#000000" fill-rule="evenodd" fill-opacity="1" /><path clip-path="url(#clip700)" d="M 0 0 M582.717 444.127 L582.717 444.628 L578.018 444.628 Q578.085 445.684 578.651 446.239 Q579.223 446.79 580.24 446.79 Q580.829 446.79 581.379 446.645 Q581.934 446.501 582.478 446.212 L582.478 447.179 Q581.929 447.412 581.351 447.534 Q580.773 447.657 580.179 447.657 Q578.69 447.657 577.818 446.79 Q576.952 445.923 576.952 444.444 Q576.952 442.916 577.774 442.021 Q578.601 441.12 580.001 441.12 Q581.256 441.12 581.984 441.932 Q582.717 442.738 582.717 444.127 M581.695 443.827 Q581.684 442.988 581.223 442.488 Q580.768 441.987 580.012 441.987 Q579.157 441.987 578.64 442.471 Q578.129 442.955 578.051 443.833 L581.695 443.827 Z" fill="#000000" fill-rule="evenodd" fill-opacity="1" /><path clip-path="url(#clip700)" d="M 0 0 M588.633 442.465 Q589.016 441.776 589.549 441.448 Q590.082 441.12 590.805 441.12 Q591.777 441.12 592.304 441.804 Q592.832 442.482 592.832 443.738 L592.832 447.495 L591.804 447.495 L591.804 443.772 Q591.804 442.877 591.488 442.443 Q591.171 442.01 590.521 442.01 Q589.727 442.01 589.266 442.538 Q588.805 443.066 588.805 443.977 L588.805 447.495 L587.777 447.495 L587.777 443.772 Q587.777 442.871 587.461 442.443 Q587.144 442.01 586.483 442.01 Q585.7 442.01 585.239 442.543 Q584.778 443.071 584.778 443.977 L584.778 447.495 L583.75 447.495 L583.75 441.271 L584.778 441.271 L584.778 442.238 Q585.128 441.665 585.617 441.393 Q586.105 441.12 586.778 441.12 Q587.455 441.12 587.927 441.465 Q588.405 441.81 588.633 442.465 Z" fill="#000000" fill-rule="evenodd" fill-opacity="1" /><path clip-path="url(#clip700)" d="M 0 0 M596.731 444.366 Q595.493 444.366 595.015 444.65 Q594.537 444.933 594.537 445.617 Q594.537 446.162 594.893 446.484 Q595.254 446.801 595.87 446.801 Q596.72 446.801 597.231 446.2 Q597.748 445.595 597.748 444.594 L597.748 444.366 L596.731 444.366 M598.77 443.944 L598.77 447.495 L597.748 447.495 L597.748 446.551 Q597.398 447.117 596.876 447.39 Q596.354 447.657 595.598 447.657 Q594.643 447.657 594.076 447.123 Q593.515 446.584 593.515 445.684 Q593.515 444.633 594.215 444.1 Q594.92 443.566 596.315 443.566 L597.748 443.566 L597.748 443.466 Q597.748 442.76 597.281 442.377 Q596.82 441.987 595.981 441.987 Q595.448 441.987 594.943 442.115 Q594.437 442.243 593.971 442.499 L593.971 441.554 Q594.532 441.337 595.059 441.232 Q595.587 441.12 596.087 441.12 Q597.437 441.12 598.103 441.821 Q598.77 442.521 598.77 443.944 Z" fill="#000000" fill-rule="evenodd" fill-opacity="1" /><path clip-path="url(#clip700)" d="M 0 0 M599.842 438.847 L600.864 438.847 L600.864 447.495 L599.842 447.495 L599.842 438.847 Z" fill="#000000" fill-rule="evenodd" fill-opacity="1" /><path clip-path="url(#clip700)" d="M 0 0 M607.257 444.127 L607.257 444.628 L602.558 444.628 Q602.625 445.684 603.191 446.239 Q603.763 446.79 604.78 446.79 Q605.368 446.79 605.918 446.645 Q606.474 446.501 607.018 446.212 L607.018 447.179 Q606.468 447.412 605.891 447.534 Q605.313 447.657 604.719 447.657 Q603.23 447.657 602.358 446.79 Q601.491 445.923 601.491 444.444 Q601.491 442.916 602.313 442.021 Q603.141 441.12 604.541 441.12 Q605.796 441.12 606.524 441.932 Q607.257 442.738 607.257 444.127 M606.235 443.827 Q606.224 442.988 605.763 442.488 Q605.307 441.987 604.552 441.987 Q603.697 441.987 603.18 442.471 Q602.669 442.955 602.591 443.833 L606.235 443.827 Z" fill="#000000" fill-rule="evenodd" fill-opacity="1" /><polyline clip-path="url(#clip702)" style="stroke:#000000; stroke-width:0.480208; stroke-opacity:0.1; fill:none" points="
  34.0907,421.006 633.664,421.006 
  "/>
<polyline clip-path="url(#clip702)" style="stroke:#000000; stroke-width:0.480208; stroke-opacity:0.1; fill:none" points="
  34.0907,317.183 633.664,317.183 
  "/>
<polyline clip-path="url(#clip702)" style="stroke:#000000; stroke-width:0.480208; stroke-opacity:0.1; fill:none" points="
  34.0907,213.36 633.664,213.36 
  "/>
<polyline clip-path="url(#clip702)" style="stroke:#000000; stroke-width:0.480208; stroke-opacity:0.1; fill:none" points="
  34.0907,109.537 633.664,109.537 
  "/>
<polyline clip-path="url(#clip700)" style="stroke:#000000; stroke-width:0.960417; stroke-opacity:1; fill:none" points="
  34.0907,432.375 34.0907,30.6834 
  "/>
<polyline clip-path="url(#clip700)" style="stroke:#000000; stroke-width:0.960417; stroke-opacity:1; fill:none" points="
  34.0907,421.006 41.2856,421.006 
  "/>
<polyline clip-path="url(#clip700)" style="stroke:#000000; stroke-width:0.960417; stroke-opacity:1; fill:none" points="
  34.0907,317.183 41.2856,317.183 
  "/>
<polyline clip-path="url(#clip700)" style="stroke:#000000; stroke-width:0.960417; stroke-opacity:1; fill:none" points="
  34.0907,213.36 41.2856,213.36 
  "/>
<polyline clip-path="url(#clip700)" style="stroke:#000000; stroke-width:0.960417; stroke-opacity:1; fill:none" points="
  34.0907,109.537 41.2856,109.537 
  "/>
<path clip-path="url(#clip700)" d="M 0 0 M21.5496 417.596 Q20.6831 417.596 20.2443 418.452 Q19.811 419.302 19.811 421.014 Q19.811 422.721 20.2443 423.577 Q20.6831 424.427 21.5496 424.427 Q22.4216 424.427 22.8549 423.577 Q23.2937 422.721 23.2937 421.014 Q23.2937 419.302 22.8549 418.452 Q22.4216 417.596 21.5496 417.596 M21.5496 416.707 Q22.9437 416.707 23.6769 417.813 Q24.4157 418.913 24.4157 421.014 Q24.4157 423.11 23.6769 424.216 Q22.9437 425.316 21.5496 425.316 Q20.1554 425.316 19.4166 424.216 Q18.6834 423.11 18.6834 421.014 Q18.6834 418.913 19.4166 417.813 Q20.1554 416.707 21.5496 416.707 Z" fill="#000000" fill-rule="evenodd" fill-opacity="1" /><path clip-path="url(#clip700)" d="M 0 0 M14.0177 320.387 L17.9336 320.387 L17.9336 321.332 L12.6679 321.332 L12.6679 320.387 Q13.3067 319.726 14.4065 318.614 Q15.5118 317.497 15.7951 317.175 Q16.3339 316.569 16.545 316.152 Q16.7616 315.73 16.7616 315.324 Q16.7616 314.662 16.295 314.246 Q15.834 313.829 15.0897 313.829 Q14.562 313.829 13.9732 314.012 Q13.39 314.196 12.7235 314.568 L12.7235 313.434 Q13.4011 313.162 13.9899 313.023 Q14.5787 312.884 15.0675 312.884 Q16.3561 312.884 17.1226 313.529 Q17.8891 314.173 17.8891 315.252 Q17.8891 315.763 17.6947 316.224 Q17.5059 316.68 17.0004 317.302 Q16.8616 317.464 16.1173 318.236 Q15.373 319.003 14.0177 320.387 Z" fill="#000000" fill-rule="evenodd" fill-opacity="1" /><path clip-path="url(#clip700)" d="M 0 0 M21.5496 313.773 Q20.6831 313.773 20.2443 314.629 Q19.811 315.479 19.811 317.191 Q19.811 318.898 20.2443 319.754 Q20.6831 320.604 21.5496 320.604 Q22.4216 320.604 22.8549 319.754 Q23.2937 318.898 23.2937 317.191 Q23.2937 315.479 22.8549 314.629 Q22.4216 313.773 21.5496 313.773 M21.5496 312.884 Q22.9437 312.884 23.6769 313.99 Q24.4157 315.09 24.4157 317.191 Q24.4157 319.287 23.6769 320.393 Q22.9437 321.493 21.5496 321.493 Q20.1554 321.493 19.4166 320.393 Q18.6834 319.287 18.6834 317.191 Q18.6834 315.09 19.4166 313.99 Q20.1554 312.884 21.5496 312.884 Z" fill="#000000" fill-rule="evenodd" fill-opacity="1" /><path clip-path="url(#clip700)" d="M 0 0 M15.634 210.189 L12.8012 214.619 L15.634 214.619 L15.634 210.189 M15.3396 209.211 L16.7505 209.211 L16.7505 214.619 L17.9336 214.619 L17.9336 215.553 L16.7505 215.553 L16.7505 217.509 L15.634 217.509 L15.634 215.553 L11.8903 215.553 L11.8903 214.469 L15.3396 209.211 Z" fill="#000000" fill-rule="evenodd" fill-opacity="1" /><path clip-path="url(#clip700)" d="M 0 0 M21.5496 209.95 Q20.6831 209.95 20.2443 210.806 Q19.811 211.656 19.811 213.368 Q19.811 215.075 20.2443 215.931 Q20.6831 216.781 21.5496 216.781 Q22.4216 216.781 22.8549 215.931 Q23.2937 215.075 23.2937 213.368 Q23.2937 211.656 22.8549 210.806 Q22.4216 209.95 21.5496 209.95 M21.5496 209.061 Q22.9437 209.061 23.6769 210.167 Q24.4157 211.267 24.4157 213.368 Q24.4157 215.464 23.6769 216.57 Q22.9437 217.67 21.5496 217.67 Q20.1554 217.67 19.4166 216.57 Q18.6834 215.464 18.6834 213.368 Q18.6834 211.267 19.4166 210.167 Q20.1554 209.061 21.5496 209.061 Z" fill="#000000" fill-rule="evenodd" fill-opacity="1" /><path clip-path="url(#clip700)" d="M 0 0 M15.1674 109.09 Q14.412 109.09 13.9677 109.606 Q13.5289 110.123 13.5289 111.024 Q13.5289 111.919 13.9677 112.441 Q14.412 112.958 15.1674 112.958 Q15.9229 112.958 16.3617 112.441 Q16.806 111.919 16.806 111.024 Q16.806 110.123 16.3617 109.606 Q15.9229 109.09 15.1674 109.09 M17.3948 105.571 L17.3948 106.594 Q16.9727 106.394 16.5394 106.288 Q16.1117 106.183 15.6896 106.183 Q14.5787 106.183 13.9899 106.933 Q13.4067 107.683 13.3234 109.201 Q13.6511 108.717 14.1454 108.462 Q14.6398 108.2 15.2341 108.2 Q16.4839 108.2 17.2059 108.962 Q17.9336 109.718 17.9336 111.024 Q17.9336 112.302 17.1782 113.075 Q16.4228 113.847 15.1674 113.847 Q13.7288 113.847 12.9679 112.747 Q12.2069 111.641 12.2069 109.545 Q12.2069 107.578 13.1401 106.411 Q14.0732 105.238 15.6451 105.238 Q16.0673 105.238 16.495 105.321 Q16.9282 105.405 17.3948 105.571 Z" fill="#000000" fill-rule="evenodd" fill-opacity="1" /><path clip-path="url(#clip700)" d="M 0 0 M21.5496 106.127 Q20.6831 106.127 20.2443 106.983 Q19.811 107.833 19.811 109.545 Q19.811 111.252 20.2443 112.108 Q20.6831 112.958 21.5496 112.958 Q22.4216 112.958 22.8549 112.108 Q23.2937 111.252 23.2937 109.545 Q23.2937 107.833 22.8549 106.983 Q22.4216 106.127 21.5496 106.127 M21.5496 105.238 Q22.9437 105.238 23.6769 106.344 Q24.4157 107.444 24.4157 109.545 Q24.4157 111.641 23.6769 112.747 Q22.9437 113.847 21.5496 113.847 Q20.1554 113.847 19.4166 112.747 Q18.6834 111.641 18.6834 109.545 Q18.6834 107.444 19.4166 106.344 Q20.1554 105.238 21.5496 105.238 Z" fill="#000000" fill-rule="evenodd" fill-opacity="1" /><path clip-path="url(#clip700)" d="M 0 0 M314.952 4.02283 L314.952 6.09456 Q313.96 5.17055 312.833 4.71341 Q311.715 4.25627 310.451 4.25627 Q307.963 4.25627 306.641 5.78331 Q305.319 7.30063 305.319 10.1796 Q305.319 13.0489 306.641 14.576 Q307.963 16.0933 310.451 16.0933 Q311.715 16.0933 312.833 15.6361 Q313.96 15.179 314.952 14.255 L314.952 16.3073 Q313.921 17.0076 312.764 17.3577 Q311.617 17.7079 310.334 17.7079 Q307.039 17.7079 305.144 15.6945 Q303.248 13.6714 303.248 10.1796 Q303.248 6.67814 305.144 4.66478 Q307.039 2.64169 310.334 2.64169 Q311.637 2.64169 312.784 2.99184 Q313.941 3.33226 314.952 4.02283 Z" fill="#000000" fill-rule="evenodd" fill-opacity="1" /><path clip-path="url(#clip700)" d="M 0 0 M321.046 7.78695 Q319.608 7.78695 318.772 8.91521 Q317.936 10.0337 317.936 11.9887 Q317.936 13.9438 318.762 15.072 Q319.598 16.1905 321.046 16.1905 Q322.475 16.1905 323.311 15.0623 Q324.147 13.934 324.147 11.9887 Q324.147 10.0532 323.311 8.92494 Q322.475 7.78695 321.046 7.78695 M321.046 6.26963 Q323.379 6.26963 324.711 7.78695 Q326.042 9.30426 326.042 11.9887 Q326.042 14.6635 324.711 16.1905 Q323.379 17.7079 321.046 17.7079 Q318.704 17.7079 317.372 16.1905 Q316.05 14.6635 316.05 11.9887 Q316.05 9.30426 317.372 7.78695 Q318.704 6.26963 321.046 6.26963 Z" fill="#000000" fill-rule="evenodd" fill-opacity="1" /><path clip-path="url(#clip700)" d="M 0 0 M327.734 13.1267 L327.734 6.53224 L329.522 6.53224 L329.522 13.0587 Q329.522 14.6051 330.125 15.3833 Q330.728 16.1516 331.933 16.1516 Q333.381 16.1516 334.217 15.2276 Q335.063 14.3036 335.063 12.7085 L335.063 6.53224 L336.852 6.53224 L336.852 17.4258 L335.063 17.4258 L335.063 15.7529 Q334.412 16.745 333.547 17.2313 Q332.691 17.7079 331.554 17.7079 Q329.678 17.7079 328.706 16.5407 Q327.734 15.3735 327.734 13.1267 M332.234 6.26963 L332.234 6.26963 Z" fill="#000000" fill-rule="evenodd" fill-opacity="1" /><path clip-path="url(#clip700)" d="M 0 0 M347.777 10.8508 L347.777 17.4258 L345.989 17.4258 L345.989 10.9091 Q345.989 9.36262 345.386 8.59424 Q344.783 7.82585 343.578 7.82585 Q342.13 7.82585 341.294 8.74986 Q340.458 9.67387 340.458 11.269 L340.458 17.4258 L338.66 17.4258 L338.66 6.53224 L340.458 6.53224 L340.458 8.22464 Q341.099 7.24227 341.964 6.75595 Q342.839 6.26963 343.977 6.26963 Q345.853 6.26963 346.815 7.4368 Q347.777 8.59424 347.777 10.8508 Z" fill="#000000" fill-rule="evenodd" fill-opacity="1" /><path clip-path="url(#clip700)" d="M 0 0 M351.422 3.43925 L351.422 6.53224 L355.106 6.53224 L355.106 7.92312 L351.422 7.92312 L351.422 13.8368 Q351.422 15.1693 351.782 15.5486 Q352.151 15.9279 353.269 15.9279 L355.106 15.9279 L355.106 17.4258 L353.269 17.4258 Q351.199 17.4258 350.411 16.6574 Q349.624 15.8793 349.624 13.8368 L349.624 7.92312 L348.312 7.92312 L348.312 6.53224 L349.624 6.53224 L349.624 3.43925 L351.422 3.43925 Z" fill="#000000" fill-rule="evenodd" fill-opacity="1" /><path clip-path="url(#clip700)" d="M 0 0 M363.923 6.85321 L363.923 8.54561 Q363.165 8.15655 362.348 7.96202 Q361.532 7.76749 360.657 7.76749 Q359.325 7.76749 358.654 8.176 Q357.993 8.58451 357.993 9.40153 Q357.993 10.024 358.47 10.3839 Q358.946 10.734 360.385 11.055 L360.997 11.1912 Q362.902 11.5997 363.699 12.3486 Q364.506 13.0878 364.506 14.4203 Q364.506 15.9377 363.301 16.8228 Q362.105 17.7079 360.005 17.7079 Q359.131 17.7079 358.178 17.5328 Q357.235 17.3674 356.185 17.027 L356.185 15.179 Q357.177 15.6945 358.139 15.9571 Q359.101 16.21 360.044 16.21 Q361.308 16.21 361.988 15.782 Q362.669 15.3444 362.669 14.5565 Q362.669 13.827 362.173 13.438 Q361.687 13.0489 360.025 12.689 L359.403 12.5432 Q357.741 12.193 357.002 11.4732 Q356.263 10.7438 356.263 9.47934 Q356.263 7.94257 357.352 7.1061 Q358.44 6.26963 360.443 6.26963 Q361.434 6.26963 362.309 6.41553 Q363.184 6.56142 363.923 6.85321 Z" fill="#000000" fill-rule="evenodd" fill-opacity="1" /><path clip-path="url(#clip702)" d="
M67.0683 42.052 L67.0683 421.006 L140.671 421.006 L140.671 42.052 L67.0683 42.052 L67.0683 42.052  Z
  " fill="#009af9" fill-rule="evenodd" fill-opacity="1"/>
<polyline clip-path="url(#clip702)" style="stroke:#000000; stroke-width:0.960417; stroke-opacity:1; fill:none" points="
  67.0683,42.052 67.0683,421.006 140.671,421.006 140.671,42.052 67.0683,42.052 
  "/>
<path clip-path="url(#clip702)" d="
M159.071 42.052 L159.071 421.006 L232.674 421.006 L232.674 42.052 L159.071 42.052 L159.071 42.052  Z
  " fill="#009af9" fill-rule="evenodd" fill-opacity="1"/>
<polyline clip-path="url(#clip702)" style="stroke:#000000; stroke-width:0.960417; stroke-opacity:1; fill:none" points="
  159.071,42.052 159.071,421.006 232.674,421.006 232.674,42.052 159.071,42.052 
  "/>
<path clip-path="url(#clip702)" d="
M251.074 104.346 L251.074 421.006 L324.677 421.006 L324.677 104.346 L251.074 104.346 L251.074 104.346  Z
  " fill="#009af9" fill-rule="evenodd" fill-opacity="1"/>
<polyline clip-path="url(#clip702)" style="stroke:#000000; stroke-width:0.960417; stroke-opacity:1; fill:none" points="
  251.074,104.346 251.074,421.006 324.677,421.006 324.677,104.346 251.074,104.346 
  "/>
<path clip-path="url(#clip702)" d="
M343.077 119.919 L343.077 421.006 L416.68 421.006 L416.68 119.919 L343.077 119.919 L343.077 119.919  Z
  " fill="#009af9" fill-rule="evenodd" fill-opacity="1"/>
<polyline clip-path="url(#clip702)" style="stroke:#000000; stroke-width:0.960417; stroke-opacity:1; fill:none" points="
  343.077,119.919 343.077,421.006 416.68,421.006 416.68,119.919 343.077,119.919 
  "/>
<path clip-path="url(#clip702)" d="
M435.08 244.507 L435.08 421.006 L508.683 421.006 L508.683 244.507 L435.08 244.507 L435.08 244.507  Z
  " fill="#009af9" fill-rule="evenodd" fill-opacity="1"/>
<polyline clip-path="url(#clip702)" style="stroke:#000000; stroke-width:0.960417; stroke-opacity:1; fill:none" points="
  435.08,244.507 435.08,421.006 508.683,421.006 508.683,244.507 435.08,244.507 
  "/>
<path clip-path="url(#clip702)" d="
M527.084 244.507 L527.084 421.006 L600.686 421.006 L600.686 244.507 L527.084 244.507 L527.084 244.507  Z
  " fill="#009af9" fill-rule="evenodd" fill-opacity="1"/>
<polyline clip-path="url(#clip702)" style="stroke:#000000; stroke-width:0.960417; stroke-opacity:1; fill:none" points="
  527.084,244.507 527.084,421.006 600.686,421.006 600.686,244.507 527.084,244.507 
  "/>
</svg>
